<mxfile host="app.diagrams.net" modified="2020-09-30T13:07:49.635Z" agent="5.0 (Windows NT 10.0; Win64; x64) AppleWebKit/537.36 (KHTML, like Gecko) Chrome/87.0.4276.3 Safari/537.36" etag="-JcnpCrijK_GHfD9vi-G" version="13.7.6" type="github">
  <diagram name="Page-1" id="f1b7ffb7-ca1e-a977-7cf5-a751b3c06c05">
    <mxGraphModel dx="1729" dy="1619" grid="1" gridSize="10" guides="1" tooltips="1" connect="1" arrows="1" fold="1" page="1" pageScale="1" pageWidth="1600" pageHeight="900" background="#ffffff" math="0" shadow="0">
      <root>
        <mxCell id="0" />
        <mxCell id="1" parent="0" />
        <mxCell id="irF2NLX6ALALWVSYMxFA-61" value="Emergent Engine" style="strokeWidth=1;shadow=0;dashed=0;align=center;html=1;shape=mxgraph.mockup.containers.window;align=left;verticalAlign=top;spacingLeft=8;strokeColor2=#008cff;strokeColor3=#c4c4c4;fontColor=#666666;mainText=;fontSize=17;labelBackgroundColor=none;" vertex="1" parent="1">
          <mxGeometry x="50" y="30" width="1450" height="830" as="geometry" />
        </mxCell>
        <mxCell id="irF2NLX6ALALWVSYMxFA-62" value="" style="strokeWidth=1;shadow=0;dashed=0;align=center;html=1;shape=mxgraph.mockup.containers.rrect;rSize=0;strokeColor=#666666;" vertex="1" parent="1">
          <mxGeometry x="50" y="60" width="120" height="800" as="geometry" />
        </mxCell>
        <mxCell id="irF2NLX6ALALWVSYMxFA-63" value="Health&lt;br&gt;Scenario" style="strokeColor=inherit;fillColor=inherit;gradientColor=inherit;strokeWidth=1;shadow=0;dashed=0;align=center;html=1;shape=mxgraph.mockup.containers.rrect;rSize=0;fontSize=17;fontColor=#666666;fontStyle=1;resizeWidth=1;" vertex="1" parent="irF2NLX6ALALWVSYMxFA-62">
          <mxGeometry width="120" height="720" relative="1" as="geometry" />
        </mxCell>
        <mxCell id="irF2NLX6ALALWVSYMxFA-64" value="Group 2" style="strokeColor=inherit;fillColor=inherit;gradientColor=inherit;strokeWidth=1;shadow=0;dashed=0;align=center;html=1;shape=mxgraph.mockup.containers.rrect;rSize=0;fontSize=17;fontColor=#666666;fontStyle=1;resizeWidth=1;" vertex="1" parent="irF2NLX6ALALWVSYMxFA-62">
          <mxGeometry width="120" height="26" relative="1" as="geometry">
            <mxPoint y="720" as="offset" />
          </mxGeometry>
        </mxCell>
        <mxCell id="irF2NLX6ALALWVSYMxFA-65" value="Group 3" style="strokeWidth=1;shadow=0;dashed=0;align=center;html=1;shape=mxgraph.mockup.containers.rrect;rSize=0;fontSize=17;fontColor=#ffffff;fontStyle=1;fillColor=#008cff;strokeColor=#008cff;resizeWidth=1;" vertex="1" parent="irF2NLX6ALALWVSYMxFA-62">
          <mxGeometry width="120" height="20" relative="1" as="geometry">
            <mxPoint y="750" as="offset" />
          </mxGeometry>
        </mxCell>
        <mxCell id="irF2NLX6ALALWVSYMxFA-66" value="Group 4" style="strokeColor=inherit;fillColor=inherit;gradientColor=inherit;strokeWidth=1;shadow=0;dashed=0;align=center;html=1;shape=mxgraph.mockup.containers.rrect;rSize=0;fontSize=17;fontColor=#666666;fontStyle=1;resizeWidth=1;" vertex="1" parent="irF2NLX6ALALWVSYMxFA-62">
          <mxGeometry y="1" width="120" height="26" relative="1" as="geometry">
            <mxPoint y="-26" as="offset" />
          </mxGeometry>
        </mxCell>
        <mxCell id="irF2NLX6ALALWVSYMxFA-68" value="" style="shape=image;verticalLabelPosition=bottom;labelBackgroundColor=#ffffff;verticalAlign=top;aspect=fixed;imageAspect=0;image=data:image/png,iVBORw0KGgoAAAANSUhEUgAAAggAAADdCAYAAADekIrWAAAgAElEQVR4XuydBXhd15W2333OBV0xWJZJZoqZYgcc5jRtA22alKaUMkzbKU//0rSTTJtOYdrpTDOddpJSGBxGxwHHlNgxM8qWLMZL5+z/WfvqypJFV9KVbdln58ljW/ecDesc3f3ttb71LaW11njNs4BnAc8CngU8C3gW8CzQzgLKAwje++BZwLOAZwHPAp4FPAscbwEPIHjvhGcBzwKeBTwLeBbwLNDJAh5A8F4KzwKeBTwLeBbwLOBZwAMI3jvgWcCzgGcBzwKeBTwL9G4Bz4PQu428KzwLeBbwLOBZwLPAGWcBDyCccY/cW7BnAc8CngU8C3gW6N0CHkDo3UbeFZ4FPAt4FvAs4FngjLOABxDOuEfuLXioWEDTWaJEoYbK9L15ehbwLDDELeABhCH+AL3pp88CLhoHFxtFExHiOAQJECVGDBfH/NtPiAA+LHzY/R68kbAZoZkIDTSTTQgHbfo9SBXVNJq5CCAQSCBgQeBCLiHzfyYZlJBHAVn9noN3o2cBzwKeBXqygAcQvPfjtLaAbKuy2ctGHMWhnmYsFLJBV1BPHplEiFFJPXU000IUAQpZBM01sjnLFi0/kyb/9uMzIMHCoohsJjOSDPwGNtTSZPqI4RiAMY5hZlyZxw6OkEmgbbOX/suoNp9Kvy6uuSfpN5CfCQgRUCJzkHkLaJCWQ8gAhGaiZBDgXKaYfuV6G4sGWkw/SUAj956uTbe0oOvrsYYPN0vUDQ0QCqH8/tN1yd66PAucEAt4AOGEmNkb5ERZINp6Ki+njkPUMJ5h5JLJGnZRRYPZJuO4ZgOPme1YTumyEcvZXRmwIH0c3zIJkk2G2eBLKTZXCyCQfgRYrGOX2ZDl59J/Akyo1nN/elfvNyDANpAngJ+RFJg1HG0FPI20EMEhhJ9CspnHBMYyLL2TOK43UWyX/44PgSjVf2BiVOCbm6ElDMEAurHR/F2NLUXZNs6ePeh9+9Bbt6NmnoU1cSLu7j1YJSWoggKcjRuxFy5A5eWltHYdi4HWqECg2+udXbtQ+fmmT/fV13Feex173jzU9KmocWNRlpXSWN5FngWGggU8gDAUnpI3x24tsI0yRpttMIN17GYfRzlEtdm4pclpWk7a4sIfRzEb2W9O/mMoYgdl1NPS1reAhcQmJy59jJdArptt/ADZlFHDHipM/wIKuuIInOhHlQQhpQwjhwwz/FiKzYzFeyCgZzB4C1oLCFI0xMsIWnlUhrdwNLKVTN8wLCUwySbqNpFh55HrH0NhcGLidK81US1eHAu/FUqYKx4Hn6+T6QxAiEZx9+7FXb8BNSKx8cvmrA+VoYYXm/7cV15F19RiLZgPSmFPnw6ZIXAcyMxM2ZOg5XoBCF3MpcPktMZ54w3iv7sLvXM3DCsEZWEtmIt9y80QiWDPmAEeWDjRvw7eeGm2gAcQ0mxQr7uBW6Crk+gBqtjBYYL4GEUhpRQZd3oTYeR0L5vgVg6xhUMmjCDue/EEyFYVImiuzyfLbPJHqDFQQO4RL4KcwiXUIDBDNlb5U7wOco0ADblewhTyb+EH7KVi4ItMYw8S8pjIcM5nurGPhBwGozlujLKWdVSENxkI5egYfiuTFqeGLN8wsuxiMnwFBK1cIm49fpVBhp1Plq8ES1m42jHMDcvqP3djMNZlgEskAuEwKjfXgIxem3hM6upMaEMfPoLz6BPo7Tugsga9cTPWh27G97UvE//SP6OuXAqWwr7iMtSYMQzEq9LrvLwLPAuk0QIeQEijMb2u+m4B2cZl462i0bjIxekvfIHFTDEucmkSwxdwIPF6ia3LdVcz33z2HOsZRREXM5MANuvYY64rItds/nKqPkKd2eSFG5CI9Wvzv5yuJZYvJ23xMsyg1Py5kh3s5oghCia5B31f2Ym5Q4DNpcw2nAnxoggXYjA8BmYT1ZqmeDkRt4mKlrfJCYymIVZGU7yCmNvM5JyrsZRNVWQHBYGJ5PhHGLAg9E5bdfYQnBgLnbhRtOt2CDEIFyJy7qVYpWMgEIKCAnzf+UdUcTH4/agsj2B64p6ON1J/LOABhP5YzbsnZQsk2ffivpdzuJzA5YRbRT2LmWw2Z3HZC4Evn0xmUdqWHSBgYC9Hmc3YTu58CQEImNhNOWHiDCeXkeSzht0mnDCRYp7jbXZxxIQIkuBCGAkSoxevg5AL5zHeAAWzAaLNHKXfRiJsp8xwEgRErGdvyms+URcmSYzTGWN4CJMpMbyIwQII7dclYGFv03KqIjuJuA1MzL6YkaEEaKuK7KLFqSZgZTE8Y4YBFqfKqVk2cfEUmJaRMWDOgHvgANaYMSD92sc8I0KclP6lydrFBrGvfwf3zt/CqBLsr34O+703oQryDaFSQhutFydslYoXYxBeNBPWEaDTbi2JX45j8xuEYb0uT1ELeADhFH0wQ31akhK4nSNUUMdhagwoEAAgTTbgPLKM238E+eZncvI/Qi3XMK+N3LeJA2SR0cb6f5PdBlBcwAyEqPcsGxBKWII5AMXkkEuWIR6Kr0E2d/m7gALxHsg94omQzXQqoxhPseEoHN9kzuJFOEClyVgQT4SczGUuAlokrNFZoeDEPzEJmSxikgmJCJdiGiNNbP9ENbPp6RaaYkfJD5SiVOexhasgT0c8CyejySne3bQZcnNw31yPfuwp3JdfhYJ8/Pf+CXvmzAFNS0ejnUmNsRhuWRm6thZVUmKAgrPscZwf3Qnb9xufGAE/ZARRF5+PUj70oUOJeQQysS46G+u2j2GNHdt5ox7QbBM366amhPdCOBfCk2gHRgRAic2sdsROLaGXYLANwKRhCl4XQ8QCHkAYIg9qqE0zye6XzVX4ABJCkM1VSITymWzeEkJYxGSzSa9ltwEOQrYT4CCse7lPNj7xAiR4A7CQiYYvIBkJkygx4OAp3jLphXLvWIrMJilAoo4m6mgx1whgETLjTEoNAJGTdk9Nrm8g3AZQBFwkT+YSAhFOxItsNMDjZDVZgwAY4U0sNEAh64QChJO17h7HFW5AbS3OAw/j3P1X9LqN0BxGXXMx1tx5qBlTExkPM2ekTF5M7Koak05ZW4c1auSxKciG6jg4z78A695GHz2Ks3wFbNgOQQvGl8LuMgg3QygI4llIpakAnLuQwC9vx1q0IJU7er3GPXQI3dRM7OZPQlMVasok9LadqPPPR+k4qngY1odvhaxM2LsP8vJQo0YaXobKzvZIl71a+PS7wAMIp98zPeErkhOibJRyWk/G7CUmLk02VQEA8vNKGgzBT/40hyVsCsmhmFzCxpWfYTwK4uYXMaDk6V48C6IOIGGEcmpZzU5z/Q0sZj37TJ8yulwvCX7JjVxAgjQBIzKfpUxnNEVps494PV5m80nLZhDOwXiGm7CMNAmtJDMZ0rbIPnYkHoOuPAl97Kb/lzsO0W9+F/fnv024/SdPxXf3b/Cds6T/fQo+kEwL20aJq731xC3ERkmljP/sl/D3R1pzXwY0zLGbLRu1cAG+X/7EpE9aI0eacY/nOfRnNFmLu2Ytzu//N6EXMWk8jB8HkSj2hUvNWG5NDc7yl9EvvwK1dfh+8F3j0fDamWUBDyCcWc97UFYrG/rdLO+wUcrmLKBAUgU/yAXmpCtAIiH0kxD9SYoQiayQnNbFZZ4EBQI4xNsg+f6HqWYiJQwnjxVsNR4FgSIjKGA6o5jGKDPWAUMrDDOCPHOalswDGUX+lCTAdKf8CVnyPl43AORENPEYSGgjmYop6YxzGc8oClpVHFJg3w/yRE823yD2s3/H+fbPINYIF5xL8JmHUa1cgIEs3cTmk3yCaNR4CpJeBeepZ3BXvAr3PW4CXgNu/iC+lx7Dfe55GDECa9YMVGGhSd8ULQjj7u9KBMp1cdaswZozp8c1G82KfftQo0e3eVGcDRvQlZW4G97GvuZq7KlTTxoPYsD28zpImwU8gJA2U555HUnY4HW2sZ/KDpukkPrkfxHykZO9nNpFsEh+Vkye2fgnM8LcK4JGAiJk8z+L0eyi3LjMhWwoxEAhEwpJUcIJD7HKbPISopjECOYzwRAOk5kLsxhrUhslLCEkSJEyLiHfeBVkDGkTGcESJqeFyCc8hxcQpkTloD58AU2SdplN0ICipECS8ChEarm3cMmgTu4U6tw9fJjYp76IXr0WMrPwP3AP9ry5Kc1QRJJiP73TnKitc5dgz5mDEBCF0GhNmYLKzDSxeWftOty/PIj7+z8c61c8ClnZ0JjwjA2kqUXzULPnQG0N7tZtsGVHq2fCggnjYI+QZTVkhGBYAfbV74BppajS0RCL47y0HH3PgzC6JEGazM7Cumgp9vtuwu7Fi+IePoLesdOIP0lYw77owr6FYQaycO/eU9ICHkA4JR/LqT0pOTG/xnbeYk/bRCUkUEC22ZA3c8Cc5KXJhi56BbJxy2aWyGBo4BJm8TRvGY/BB7iAInKMd+F1tpstV+L80uT6y5ht+AQSapD7xLUu1z7P22YsOdtNoMSEJ9ayq00JUa6TTAWBJjJXATQCRCQlUjIeBsL2l1O88CbeZE9beGUwnprYJ5kJIkBAPCnC5Tjf+E0KB2PIIdmnORW/sZro1TdAXT0smk/wtedT3uDkZB7JGd3mAVDnLyX4ypPEn34G9hxAzZ9N/NHHUHEXNX487oqXEY0tvWYVHDyc3vBCj09AyJ4JEbCUm4hFXXo+9kc+iP3udxkhKJPNEYkkPA3tSIrutu3E7/kr7o/vTGQu+LNg6QKsuXNQF54DW7dDYRHWlMlY8+cmsjC8dtpawAMIg/1otSb+1DM4/3c39vtvwffO6xKx0f6orLW6OQ1n34lBrAkCOdAqPHMiY7/i5hdyoCgNyqa7hCnGxb+RfUZlsLa1+kFX5k1yEmQdAgxu5XwTgkg2AQiS+igeAfEWvMRGAxA+yMUmdCBNvAavssUABQEIAg4EiEgaZU9NwhjilRC9A7nzImb0K/QgAOZJ3jSeDAFDeyhv41ak85USoSfhaQjZU8CWgBzJqBAdiAkkag+k0hIuckk3PHFZDjKvpGs+oU2ZaKJCYYJM6ZyLZFQ88ijui8vhtdXoNW9hffaT+H/6o0ScvZe0wfijy4i/+9a2OaqF8wm8sIzIwqXmZO6//27iP/wJ+vk3oKW+Ne3PD7nZWD/8Gu4/fjuVx3DSr1Gf+CCBf/0X41mILLkKdcU5WEvOxvnVf6Jmz0RNnIBevQa9fhts29ZxvqFsaGls/ZkfZkxCveNyfDdejyXKkUJulBaLg9sKYuQZ+31tKaAmCNbPFE7Jpoi/tBzf5Zf1rnZ50i19ekzAAwiD/RxFCnb7dggEUMOH910cRU5GbhxdvR194FVoqUY7YWipSvwSBrIMyrdKL4DcMQY4qNxSVEZq+vO9LV8yC2TDl428fZOfS5PNXk7islGvZjfNpsCRMqd82ThFSyDpDehqLDkRy4leMhOEh5Ak2Ql4WMVOXiPxJSWjfIRLzHXSNrDfeAvEmyH/CziQTbR9+qF4NGpp7JSSKF9SIo+UqIoYNGmCokLYl4JG4hHZwL62kIhoMUgaZjqbgKYJFNNCzBA5z2EKL7PFeCymMNKEZFJtomIoG7OtTlwBIyEs1kUPEXbrOBreRF6glLgboTF+GEsFyPYNNzoJIbuo1w081XUaRcTGRpwVr6K370TnZJnTru+yS3ErKkydhq5a/JFlxK8/BhDMNdlZ+B/9O+7zy3F+/DOTlig/o6HRnL5NywyhLr8IiovQ//PnVKd5cq8T3YWJ4yBqwY7NneciKam6j16K/DzUtCkJXkZVFTQ1J/oNBo2XQU2egv3tL2PPmZ0AV73JWXdhIckW0WvfQp01FZXT8fvo5Br09B3dAwin4LPVTgxdthp9eC26ZidEJbbZh8x7Qe2Zw8EOoLJHQKQRsoqpmHk1li9kNkRJ25MmG51sOHIqleqGssmK8qDIFcsmL7UHhPsvqYeSfSDuejndy+Yqm1Syyc8k7U8IgdJnIrRgtRZNPkbckhREIRhKkzHlRC+Bh3OZakCIeAAEfAg5UbIVRJNA+pPTspyZxWMhfSerNIp0soQPxBsg9wuAEIAi85eTt1RblJP+8SAlWR1RshuS0s3isUilydgbOcCrbDOeC5E53sJBI+OcziZzlPklC0sl+RgSNpF1DSREks55JvsSQNAYP0pleLtRTqyPJcCBALKwWyvVF1hvTaJSFTCaBmZbYcYdziL/xV2oieOx+3kyFFa+kAatESO6P526LvG/3YeOhFHl9VCYBXk55sRszZlttAwiH/go+tmXoPKYF8q6/l1YH/8g8XcKeOhm07R8kJcNNbWDYdbTqE8L+0ffQZ09DzV+HHrXbgMk5O+GLyF6EX+713BA5EDlPrIMwlFUUQnKbyU8pWNKUFMnoyZNTDzv4wWdTiNrnQpL8QBCGp+CEJ30th0mv7hNWKS3/gVxR+og1gziKajahrvnOWhOn96/Y/vYMmkOL02dgFYYZcG5jDPpgWsNj0CbWL94ARKlijtWM0xmG8im3f4zIR1Kip14AWRTr6bJbPpPsq5VylhK9si2kNAQOIsxhmy3gb1tp37RJRDCoqQtyib7FnsNsLiRcwz57gneNIRD+dl1nM0+KpjKSLOpy8b5NvtYTuIUJH1fx0IjmLSfKgMWJK9B5vAibxvy4vHSyQKWZF6SQikpg6k20UkQQCUAR4SghA+R5F2k2kcq18ncxaZio3OYajwep1qLOI3UxQ4Qd8McCW8k6tTTovyss89mjLuXYn3EQEZXK/5snWegrtLwg2/9iFF3PdG6HCHhlcKIYSb33r71FqxzFqFGjerkXRBXs3FT+3yJqo6vvEbsfR/B/vH38P/D+018XR84mFAEHFuaqAgpcfdde0C7OLt343zgk4mfSxs9AuvmG7DfcxNqWCGxr3wT/fizbaDcd/d/4zY2oDe8bciPevnrcOQIHCw71R7F0JnP1IlQH4YjXdhwxlSsqy4zfIn4z+5EL3uu63X5c1DvvRLfpz6Bdc7iHqtwDh3DnFoz9QBCmp6H0V2/8RZ44RXUVz5H8I5/SYln4B55C3ftb1pjdn3wEqQ4b+nxiQuvY3duULILB62JOqEoE85nvCl3LC5/qbMgwOAVtpqCSCJ2JBu7uMqTksDiDZDNVkozSzhBwIZ4JmSzbX/yT2YhCCgRgp4EE15nq4nJy4lePAxXMtdkKyRBjJQ8ljCFZE4UkWU0E7bRqljXti0p4yE5j2nGk5FqmEHGXM4W4w0Rb4KsYaBN+AySOimKk5LCKJ4J8eIISEiGcgY6RjrvF49BdSTBqo+6DVRGtnGATB5yShlm2xx0RQMDhlt+yt2oAQaJ4toJgPDNj3ybSY+/2P2UggHU3FnY/+8b2Jdd2pa659bWErv2evTm3fge+CP2pZeYHH6Jdcd++GPc3/4FGptQV59n0gT13X8z1RaNSJGECHIK4OC+rseVMIKcYF98+djnlkItPR/ff/wbscvfBVU1WJ/9KO7TL8L2Xek06ZnVl4C8pIRzVytPSk4LZ6unJteVTiS4/iVTittr6bOABxAGaEtxb8Z//wec790BR1tP/cEgvvv/hO+6d6TUu7Pql+jyt1K6ti8XRTKyeezcSzicPTjV/ZJzkU1V5IwTwkTapDaKHLG4/GWTE4CQLL+cvEeIjQIikuENCU1IJUIpmCTcgu5O4yItLONIBoEAkGSTcILoLSR1FGQDv4+VBohczmzDbxA+ghArj28CYuSULnF+4SLIn11JMCfvE87DM6w3WRUyF/F+yHr728QOlzLTZGKcih6C7tbliiiSECcjO9jXvI57OYsybXfJ+chTfmp1R70IgQq33f4/LP7ZXYZl0qOGQNEw7E98EN+Pv2+8BpGP3gZ1Tfi+9w2Tkhj5h0+hn34WKgYn5VR96BYC//s7ou+8Gf3kM4n5jiyB6jqItHoi+vsCePelxwIFedhf/zL+r385pcNZegY9vXvxAMIAnq+kBMW+9n30Y48d60XU1j5yC+w+iG6oRY0pJXD/PR001XW0EZolzqlRuWNxa3YmwgqVmxOZCWloh4eP5dGzzyFqDfxk29/pZBIgh0yjfphKk1CEcBR6Eh5K9ilZDeIZkLCIaCSIVkJSObH9WBJSkDCDhCKEVNg+xCCbsYASEXqSjU5Ahcg1C0C4kLO6jfFLfy+w0fAjpElQpi++H1mnACYJm0hNigs4K6WMBFdrqt04RZavze2ezBKo1QneR7aysfvJEk/lGbW/RjwIh1rWcqBpJeWqiIfUnG79KIXKT/VxACHoar5y01eYuGJlwq8gIQVJm7NstBB7D5ZDS3LzVajzFxN44kHk904NG0Z0zrkoIb1NHod+YBk0JRn2fV1Jd9f7UUsXoJti+P/0H+hV64l/65/haM+ZMuka3eunfxZQixfi++9fJQiRJ+h3oX8zPfXv8gBCP56RsGndLVtx163D+f7tsP9QovBJsgVaT+xZmVgfuQXf17+CKsgxmQjuziegpRIi9VAyF3xZULMjbZwD2agOlM7gkblnDWpIoR9m6/Mtkmkg50qBDcIfkA1Q6inMZ6Kp4yDud5EXbh8WSGoGJKMpIuL0IG90GltAgIQzpKKk8BwOUilwzWQGSFZFT6EGqSAphaKSpapTXZgAAuFJDCObAAEzdjIro7c+HNflj81H2B8PMz2QxTg7gxo3xpZoEz7LYkusEUdrvpk7gYm+DKxB/mIUYFIXO8S2+sc4aI1gmZ7aLUzKlBCJgqCyzZzbQ9bMaJw7pl1DSDIDku2yCwk+dj8qFMLdswdn1WqTh2/l5hG98Vb0G2shWJBQS3RPjIplb8/H+/zUs4Dvv36B/dEPp6yFceqt4OTPyAMIfXwGElJwVqww6mpGG73iKPEv/hP6ldZNaORo/I/9BZWbgyosQhUWmDibs+Mx9M5lhog4WE3AwfpZ57Fy3Ahi1iASDgZrAd30K+qBwiu4hvk8xlpz2pSMBvEatA8FJPgAB40Wg3gXRFAoocnQ2SsjAOBiZjGHsRyk2qg2XsosE5IQl39PTTwc97PS9J2KzLJkHIhnQgpTJbJHtPF29CULocl12BVv4fVoPVtiDbRol6YuUtGk12/kTmC6vzUnfZCeVdRp4lDzWsrCq9lgzeDV1noQxw83xs7g6znjyLd8xLTm6XAV97aUt12WEXf5tynXkNlQ3+5WG/+GFSae7Lz6WiK7oaCA2He+j3vHL/uW0TNI6/e6PZUtIAc0+T0Loy5dSvC5xz1PQj8flwcQ+mm45G0mN3f3bmLf/Qn2VZcaSVORZe3QRAth/wqIt4DlT+QY+7PQB1agq7YOcAaJ2yVTYc2MhaweN8ZkKgzFJtNu76oXHQAXh+mMYQ7jDGlRNnvZwMVTINkHEruX7AppZVQbhUdJwZSTuWzCUt65O/EkAReSXim8BmmpbtjCOZAiTc1EDfGyp4qO0qdkeohXojfg0dMza3Yd6nSc1yJ1PNTSOcMlQ1lM9WVxSbCA+YEcfIPoQaiPHuJA0xvUxPfgEOB5awG76Vp3Y0kgj89njzEhkZfCNfypqayTp2HKoaN89prbyCk7BhzURRdhf+k2kHLNL7+Gu/5t1LjSRHaBZDF4zbNAlxawwOeHedMh4qKuuQj/V/6xW/0Lz4g9W8ADCGl6Q3TjEYhHwBeErOEdVOJE6EhU43Q8DNFGdLQBd/2foOFAWkaP235enXsOG0annqaXloHT3ImkHApHQIDCeEpYyjQzgugvrGO32ezFMyDqh41EeINtzGQsC5hgvAWycYs4UlLjQe6VeglPsb6NByHZFnKdEBYFEoyjmKtN9kPq6YMCTh5hjUkTNaqW3TRZRz7ZxjMh5asH2kxIIdZsKls+3VJJvXbIVT7OC+ZzbiCXAntwRZDC8QbiOsz2hiew8XHQjXKvOrtL3oEktkoY5EOhEZT6M3iipYpHwkfN3LtqX/voPzP5yZew48dxZsaMghlT4JnlAzWfd/+ZaoFgFr7/+SX2O65C5eV53oQ+vAceQOiDsXq6VEAA4bqEsqEdTJDIxHNw6A3crQ+APwRN5YkQQ6vsbZqG5oELr6UsNzTkOQdy6pc0xSuYawSZki1ZBVK0FoSLICmRUxhhfARJZ4lkPci/23MHksRDSW8U0SW5Rk7x1zIfUT4USed3s6gt5TLV5yHzEZLk33m9W5VIGVuKTl3GLEPUTNU7keochLAom61sxIPNN5A5lTW/SU1kH3XxPa2gSFNmjeMRpneaco6y+UHeJIZZfmLa5Yf1e9nntPS4NMtxufi+Z3j/53+Qqgm86zwLpG4BOxuCLtZnP4b/X3/kSTWnaDkPIKRoqD5dpl3c3c/gHloF9fuMOMtgtJZQDk+efQGHhjg4EP2BxUwyhZWO3+SPt5sURxKiopAMpR6D1FSQDVuEisQLIF4I2TSlFoSc3EXISHgCAhykUqSoHUodietZbFIbhejYn81bxnycdcar0VWTcaUI1VCvtFgfLeNQ82oa4+VEdcdqhY1k82fr/E4Fjm/LGsNFGYl89LjWfK9ud68AISfm8rn3/iOTX1k9GL8qXp9D2gIJ3o5Jgw0G8T95P7Gvfgfe3JDaqrLz8d//h0SdibLDWHNne3oJqVkODyCkaKhUL9PiAn7lxyAhh77WhhcxF6ko11wJTjThChNw0QXAqM8p5OmzL+BI1rEiR6nO8VS5TjZmUVIU4aO+5v/LBr2PSnNKF8lj8RAc30Qe+joWmZBDomJEwt8g94r6oXgsBJz0twnQkHRH8UwIEBCBKPlPUjUlTXIe4/sFPvo7n3TfJ5kKexqXczSyGanl4LbTnTCbP34ety+kTHd8B3+SN5mxvmN2XRup498buw+n5UTifPHGLzLhjTfTvQSvvyFsAXXhJfj/8O+okhJTzyb2rlvg0GF8f/gPrCWLiV7+Tjh8jLfS5VLnzSPw0jIsCS14rc8W8ABCH0ymWyuUqdbqiYndpjWxTj6T/Cj5APYAACAASURBVG1RRjywwhRVoqEMdApZC5YfVTwbQgXoI28a1Tc1/jKsomm4B1ei9z3foXhK3LL5+xXXUy0h5yFKSExkEcxkLuP78AQ6XiqW385hnmBdt30IKFjIJM5litm4kyEICVcMhDSYHFDGjxM3WgoiFS2CT6IWeSNLehRb6veiB+FGXV8LGZmdpGoFIOxvep1DLatawwodPWEOfv5sXWhoo+3bR7JGcVFQqmsqE2pbF67nV00HOpTSkjOhH4thdY1865yPEDyaHj7OIJjH6/IkWUBddRnBpx5uG91taiL+6S/g//1vjRBS9HNfRN/VrkCWz04UgQpmJNLOm5uxf/zP+L/5tZO0gqE/rAcQ+vAMDc9AvvQ6AAQXZ9sjphdryjtwXv1XEPeqEBJ7y1BQNmrilaB86LKV4M9E5U+CUBHWyIUQzE14D5oq0NXbTAaErthAU9NBGvOG8+S8edTbrXngRuC+D4s5iZfKpv0uFhlxoP6499tv7m+zn+fo2tUoYEBCDrey1BSNkpCC/OwAVYg+wtIu4uf9NYvMabMpeN3IEqYaLsWQaK6Le/gQqmQEStjfx7W6yCH2Na+gIS6a+ccIhlJhQ+oZ3mddRF0XaaEjrQDfyh1PoR0g6rpURMO8HKsjpmBOIItiK0AeNkHXxV6zjvivfod+7GloTo9Q2JCwvTfJdhY4PocJ7G98Cf/t/3LcqUAbz6q7aTPRWUvMZ+qWG2BECb53XYfU6bCvusKAA/eVlVA6EnvmTM/S/bSABxD6abjubhN1OXffS2gjiFSVSGs0ngf5cm39gg3mYZ11M6p4JoSr0XUHUVKqOW/sMfAhRMauUtXEYxFrwln9K16fOJGakI+F+w5SGYAXzpqc5tUMTnfiehfvQX/AgbjwE5bUvMleVrLdFIrqrk1jFFczv60CpGgePMpqpKbDB1jaliI5OCs9tXt1D+xFDRuOyhCCa9fosjFWxf6mFdTEjtUc8KkQhcHpvBWr5xHd+Z0T78AEK8Q3csYRai3rK96IGjfOlngTr0ZqOerEyLV8jKlr4r1nXYGvOd0qiKe27c/I2Y0qwf74J1DDJJMAtIQHMrPMu2ddcRFqeDHu9h04d9+HfvoZ1MzpqGuvwP/RfzDKme2b8/jTxK57TwIgLF5M4LmHcV5fiX3xRV7RpjS+XB5ASKMxpSvdXImu3YcqmoY++LpJe3SlzkLFhoQ3IFOq1S3BGrUElTu63yk3UuTJ2fRX7DHn4TaUcZhq7l80N82rGZzupGSzVCcUsaP+NAEHkoEgnoOeJI4FBIja4dlMMVkPQmoUyWVpEl6QMIAQHs+UpkWMyLbRB/eh9+xBR8P43nFDj7r1cTfC5roHDUlR45JpFzE7/31YKshXa3dw1D1WD0PsKATR92SW8I6MojaHloQZxIvwTLiaRh3nxUhNm8jTlNWb+dq1n8DqqWjPmfKATvN1Wp/8BwL/9R+9r1K0ZVpaUNnZ3V4rYCB23hWtnysCh7fjPPcCvltu9jIUerdwyld4ACFlU/X9Ql1fhvPaT8CJoCZcjlV6EbpsdUInYeQClNSR76+gTTxC/LU7UHnjIJjH/vh+Hp41se+TPEl3SIhBqhf2twlIEOGkbXRfclfOxMI6SLBEOioWyGcCUq5lYcoVHPs715N+n2y+WhNfdj9q6gziX/uCqTXk+/UfsLKyUUXFPU5RvGIxV9IUNX4r02h6RLVLWTzC9+p3dfLf3J43hRLbzxuRes4Tb5kojmrNESfKcNvPoy1VvBCuNmmabkszd0y/lmCjF1o46e/JIE/A/u9f4b/towMexVm/gdj174e97SpylpRgfeg92LfcjL1wwYDH8DpIWMADCL29CVJqVJQPUxWhEe2D8rdMmEEJx2DcRaiCybh7nk8Uuy2ajpJQwgClcN3Gw7hbH04AhOajrA9Ws3z6lN5Wc0p8LjkFAg+E0Cd6B9MZlZJQkfAIklLFEp4QuePuVBJ7W2hCp6DY6CAIiDgtWvIU3gXo1OEWQ9yKP/AX3H/7Cfj9iRLJCxYSvPuBlICqbPKrovWsizYw2g5ydUYRv2k8yNpYe5lk+F7uREbZQcqdKBP9IQMOftdUxqpILZdnFBlw8Xyk2ngbAq7mtq//lDl/fPC0eATeIrqxQChEYNcGrJH9PxQke9bRKJHFF8L6TZ0HmzadwIuPYo0c6T2KNFjAAwi9GVGIiXLS7661fim7VdvRR9ahm49iFc9Cyf/ZCWVDHa5DiVCSnT7imlu7F125NZEtISl/kV28MHchDf6+1BXsbfEn5nMhDt7M+Yyk+1ruwjMQKWVJTZSCR1IH4R5e7lRGOtUZiwzzJcwy4KQ/XIhUxzmVrtPNjcQfewD3P34BVdWmXLHvF7/Dnp3aiavejfOz+v3sdZo5P1DAbdmjqHPjfK9+N9VujGFWgGLLz/uzRjDBF2pbuoglfbFmO02tFSf9KmFxqc0gdTAzNNx+9nvJ2nvI1NT02mlogdwCgpW70lY4KfqJz+L+z91dG2rMWHw/+bbxJigBwl7rtwU8gNAP05kSu9oxG7S7+9kEwdCfhTViPiqnFbkmFRNT9Tz0cR46HkHvfwVdu9sAhHhTOQ+ecw5H/MItH3pNKh3OZQLnMbVVsSCxiSQ37yhxU/MghwzjNXiIVR1KN/dnxZLh8D7O63PhpP6MdTLvkfc1meQSv/8e9J5d6D/+LwR8cNYMAv97b4Ko2EsLa5cvVW8zm/oXs0up0nEebi5nvC9Eg3b4f7kTulZ11Jof1u5hu9PUwVMRUhajbMWEQDlZzm5Grixj2MYqxn77bqyWU/891n47IXUi3weuO1SSiHp7zIPyufXTHxD46pcTffc3rNpuZrqmhkjpXGiq6TzfgjyCh3aiMoIdxpK6OcruuRDboCx+CHfqAYQ+PDzdXIUu34DKH4cIIqlQsSF4adfFEm9BGl78VKcjtR/csjWoknk0HXieFeOK2J7TsdhRqn2dSteJYJKABSnANJdxbUTGBsJGAVHSGqW+QiKXYWBNPBcjKTTFlERwaSCiSQObyeDevT7SwPMHt/CZb3wf/003o2uqcB/4G8RdOFqJ9enP4P/iN3udhACNzdFqng7XMCtQQIayOexEuEbSclGUOREm+ULYSuFohxhRMlSI+LLHadq4kQOvvsbyj9/I6xcsNGNlKcU5of1k2hXHfnW05oKb/kTBsjW9zudkXaB9PtwL51L75Tlo5WK1xMn/9KNYVR2VJk/W/E61cdWSRQRefwF3927cBx/B/7WvpGWKuq6O6MXXo9/q4l0pKcb3izvw3fLetrHcQ4fQDQ1Y48cnMh2s0yS0mBZrdt2JBxB6Mq4bRzsxo2qoAtm4NbtRGXmojIJjnIQe4r6D9dzE3V7j1puqhRFLGzb/Po4O1nAnpd+CVqnipJjR33iVI9SmfS7CaRDNgnEM53Jmp73/k9lh2HV4JVrHpnAdS3/9a3IPHGRs6WQC3/y+8c3EvvtP6EcfNvK11oc+jP/L3zYiXd01AQhCVnyz5o/k+EdREJxtqm2GowcoyphCyF9Cpa5gv7uHg3ovAbGrmkTkqcexDpRjVzZx4Nw5vLjwCqpdm3nBJsYEO1czzawIc84Nvyd79baTaT60cFOyM9Ej84nNKCY2Ikj0mpnERwfQwXZpoVqTubyOwJOb8W+rQB2pRTU3owuyCV8+lYxHN6KE73HGNgWTxkFGEN+/fBdr0UJ0fT16wyasSy7EGj4cd99+44mxJvRNOE36iX3+q7h3/62Dda2PfxD74/+Afe45Ha3e+n0tPAYVTL1A25n66DyAcNyTN4BARI4sH+6OZVgTrzSg4FRp4ix+gU3mxHYB05HaBHuooImwqT9wujQp5XwFc4zbVtb8R5ZTn8b1CfAYS7GRSN7KQSOoNJ3RhjwpJMrToTW5Dt+s3UmNbhXTAv4tfwojXQuaGog//hDuj3+YWGpWCP8DT2KN7Zh6mshgaCbuRjka3kbADrG/+VVT1bF981lZ1OaOoo4uXL7HGTNb55pnaanuVUazDrcw644XGf7bJ06a614XFFD54Htw831gp6hCFtdkvdJA8P61NHzrAmIjbTJfriN05/PY+8pP2lrS8j7LqTtbYvoSYlUQdaE50rdaM6NKULnFqCvOwf3DXyA3F99dv8ZevIj4089in3cuavy4RLG7VJvWRO/4Ke4/S8ZYqyZKfiGBDa9glZam2ot3XRcW8ABCq1F0uBYVzDU6BoQKW09SCanYU6nJZinSwhdwlhH7Ef2DtexmJ+UGNKTD9X4qrPc8ppsSze9gPuXU83deTfu0jtduE4/Mh7kI/3HSwWkf+AR1KBUf76jfx6b4MRGi7+ZOZEpdI7HPfAi27YT4sU1a3XoLatpM/Dd/uG2GZc1vsb95Ba6OYUu4QHcHQm3K84cT5xgY6W6ZCcFrhdODwNXku9Yw5esP4musP6mbasv33kvzBYXEh/chdt2VVzGuyf7rfjJ/+vhJXc+AXr2bF6MCdW2Cb5LcZcJUR0Kw4u0Bdc15i7FvvhHnWz/A//KT2IsSYahUm3i3nMefJP7OD5gqISw9m+CzT6Ay+ldrxa3ZhZU1EvwZPXrVUp3fUL3u9AYIyV9UN5aomSBCRZE6o24oYCCRnSBo2O05U+EUe7oSix/PcHPSFTb/KnaYEIPE6U+XdhEzmc94syZZ70t0kdKU5sVOYzRXM++00EWQL8wVkVrubjpMCy7j7BBn+bN4X+ZwrI1vEf/2V2GXEFyPa1OnEHz4OfPDqNvEm9V/NN6CgJVL1O2Yznj8rcrO4WBO727bkKmwKbNqpy56XGf5NT7mfOZuys4tJVgfZdKPTnwapM7No/qvNxEv7d8m08m2DmS8cJDcHzyPqk+/7oPOyYSGiIFeg9IKclHnjYOC4wik8hXaEIRHtyQ25342tWg++Gz0zt0E3l6FNaKkzz25694k+v6PwrZd+J9+BPvKS/vcR/IGQ0Z34yghmrcDfYZ/Jgq5sm/IZz2E5fo9+Cly4+kJEEwFRI2OCGnIBXmg2SOGFAhI9f2Q1D8RDJKKgqeL90DWLt4RUTqU9UnFRKklmO4mAEtCCzKWhBoWM9n8+3RIe5Qvt02xJlZH61kYyGVOoFWVTgSTXnoG94Vn0Js3ws6dEGv9Us8KYd/+79iXXk2LU015y0bKwxsM+VZhEdciltRTU5TnFRNXPT8r8SBkkUMDCe9AiEzz7jrEjSaFeBbkz6ip9pBol9x4D9nL1qAGsAFJP87UUYRvnCcKMFhv7SawP4y1aX+H9MpkxofGT/hjS2i5upTY9IK0vX7BdbXkfusplKNRlXUmAyId7ej/u4H9n57NsJXVhF7ZQcamg+S8uA0V7f+m3QkE3noh2FKptoumMtHP7IPy3sNM3a3X98R9uPc/ibttI4Ff/hSrH6JH7v4DRK+5Ht8/fh5fGoSZOs21VTpfwtFG7G6QMtXS8U4MtI/TEyAM1CpD5P4DVBo1Oomh7+GoKTUs6YCnQ0sGdgaeq9C1NSRXQlQUJXthBVuooI53cbYBCqd1E1eseBBuvQFyWtNeJk2AvDxUbj7uFz7PltAbxN0WojoRmgjZw4g4dbg9hQ+UD5Uxhog/SJVVY97FnloeBSnxFdr3MfKVwyy64g5wEu94qsG/5DsUv2wW1T+/oFO2Uc7fyvC/tgt1qJ76X12DaowSemY/wXteRmeHiFw6hfrvLE7ra+HfG8ZusQmuOoz/nlVEP3URgRU7sJavR7ldv/XG35Lhx5kwGutABSoWw4ocC+nU33wuO395JTrJl9CaCb/aSMHtD6GcxPPQUvFQ/q51yvZrv3D1rnMhp6p74ys/ek0jbGmnctgHy6kl5xF47UliH/8i7oMPEtiwEjW2tE+hXh2JoCsrjay4NWLgwkx9mP5pd6kHEIbwI93IAZ5ng9nUpCjRZg72WzhoCJuh09SzCHIu0ygi23geEuI7Eo4Rt7aLpFKKKJP4DV5kE/W0sIAJjKVjQZjTySZmLa6Ls3sHeu8u1LASrLNmtm6WyigrCt+mKrKTrfVSnVThV5ltngNbBYnprt3iLaFi6gLgqMTGJt4G8ctIa6LRZDp02GSw8OEzaZB9aq4mZ3cVgaNNFGyqYtrPn8Xe2XuZaLd0BNGrphPPVjR97KzOQ8a0kZ5WDuhAK+wQRn2zxpVsBaEfDCYXKVmYTWtCr1ST/bOXsfYc7jTPiu+8myMfmkGsIIDd4uKvjTDpu68QfHYj2uegmsJU/PZjHLxp9LF7tSZjdx0FqytxMm3q5xahWiLkbK5j9E9eQO0/3KU4Vcs1i6l+x1RG/ugpdG4m1o4DiesmjkWdlyW+mO4fnbbQ+32wYmOfHq+52OfD/s+fm/TE6IdvQz/xLL4/34XvputT70tIiz//Bf5P3dZjPYfUOzxzr/QAwhB+9uItkNi8lBmez0QDFISPcDJDDdlxRaNvsM79PT8sWb8UX7qcOYSJGXsIqfNlNpNNBouZgoAHc5JCs5MjPM46I988lVEMJ9eIJkk2w5nSJG1xX9MrFAYmcqh5DfXxg502c1tlmE3f0QKwOm8Mri+bqswsolbnzyR8ICEDG1/bvfKzWkQBdACtNSZcuK2WiXc8xag/d09iDX/jeupuHZkIjycBwACGHuxb7SNhMpbvRweDZP1uNZHJxdRcPJ7Dn1nUdTaFiZVDoC5OtLBvyoElf9pI4bM7CZQ3YB+sIjy7lNoFw6n41NnECzJAvBkKzvrNOrJe2wYjOpdl7tIe2oKDUXRzHBo1bOkdyLX1YwcJbFgBWVlEx8+HGRPx/fSH+K69JiXTiy6NPnwYNXy4p6SYksW6v8gDCAM04Mm+XdQFH9NraFYRbmqeTu3Oe9FCyjxJrT4zmzdKi9FK0RAMpO4H7ud8k27mUoZxNpPYSYWp2Cieggz8fIxLzaYv2hHCnU8Wb9rLUZaxhng7V7j0JWGHSZScNqmOXZk17oZpdmqIuY2E7EK21j1Ci9t73FisF7KLaHY6a25YViblmSGKYj60smi2XfDl0Kjq28INAhLMIRG/ISm2b8JykP96C010tZ5533qOsXc+3O0bFHvPUqq/O3twvQD9fH97vE3bFC7bRdWi6Ryem4drnRzgLXOc/MfXyN+wt/+rtIehl++HvR0BqCH4CWfsuGZ9+XMEfn470d/+J/rFVwj+7f+MdoIJhaUgcOQePYpVVOSJIfX/iZk7PYAwQAOeCrdHXrsdN38CgYwi9Ka/tKUhnYy5mTipZRun/tbpS6jPKaQ+FCJm28zfuo7lsxdQ5U8fgJFNZR7jTXglamLkiSJMonMgss1dkQ5FcOkx1hhiZ/smAOJy5jKVEadNqmNX70Bd9CAb6/7e+lGKJ0Ip5ayCOLprCWS/yiJmUiBbNzHlozK3mIiKkU+RKRVd3yp0lUu+8Sq00GyIiRlkkkHIfC6fiZaCXJ9qG/3kdha++1fdXq5DQWr+70Zi09JHNEx1bgO5Lv+BDQR3CxjTxIcXse8z11OXGzV0zhPdSl/cQ8ljr6Mti+ZFswlt2IoV7qsctkKvboFt+w1M5D0LIVwDy7Z3Wo5677sJ3nuPKfQV/7c7sW54N/aUyYnrUgj36KYmVJaEQrw2EAt4AGEg1jsF7tXRRpxnvgS546CpHOKntlhSzB9k8/ipvD51KrEB6hFJFsJoXUSoqYaoG2ZvjpxeJZysmMN4IySVVGKUcEySgCiZERKGEa+CkDwbaKGKBhN+2E8l17GITNJXWOsUeE06TEHSfeM6QkO0jP0tr9MUL09pikErzygpWkqEsIOGtOjoGJZJ89Kmz2TzB0ZwIKSxla9DNoJ4DwTUJfkHfvzEWsmPQTKIEEbSIFtILQ3w4pv/Rs7aPagDh3pcgy7OxynJp+7nVxEf0QdNg5Qsk86LEkXKJcbvb/ZT+Jun5BTXNkC8IJ+ym5ZSMSM3nYP22pd4j3yOlE5XOFYcfxSGv76HkmUrUX3KwvBDvFV4SjWbFEH9wBFo7qiSan35swR+foeZl25uJnrbF7E//kF8l17c61zNPbW1qLy8lMBESh2eoRd5AGEoP3hhpO94Ar3t/lZO98lzQfbVjIdHTmXZ/DmE7b7PWUIG4orOJ5vJe7ayaONruEpx1zU3EWntT3QUpPKj8AoEJAgg2M5ho61wfNtLBWMoYhfl5vwrFR7PlFYZ3sH2hsd7PZWGrEJa3GO8gaCVj60CODqMo+OG0+HYwjPQxMQFnFFCpdU5bBEg2AEwdLSzIpMsAx6ExChAQrwPFZQRb83OkZ8VqeEMo5hp7lTUv/4G999/DXU9azQkx4mfPY26u95LVslCsguX0FK/2XxUXdYXnYVEGbFEpaZ0N5vi36/EHTvKnJ4DGzpLUWtLcfAj11I+6+QovBoS6qEGfNV15ERzGP7nxwZkBL0nA17d0KEP6yufI3Dn7W0/c556xkgq+//0O6yFC3sWQNIad88erIkTBzQv72YvxDCk3wHdUo3z+p3QVDYk17HprCW8MGlMyjwF8QyUkM8RcUFrmNBscd0L95m175qyhCemj2mzg3gDlnIWldSzhCksY63ZcG5g8Wmhc5DOB14d2c2Weonhdw/WLPwErCzkT600YadOoEDbNJSVwaHcHAMUkiAgh1waaTCFt3LIN1tqNVU9jiOAoJlGo8h4sX2VCTnscXeiD5UR+u97UV/+LKVFcxNpb8JW/9incf8oYbUUmqVg1AgCK19EjRqBUglPgmzEB7f+C247xcmeegtmTWRY6Qcp23Y7WvcxE6PXaSpK/u3ZXlMQndxs1n//RtwTnNZsuYqZP3uK4BF5julpWjwKf0sAtWRT776G4MP3dvhZ9K4/4P/Ih6G5GZXbtQdFKjY6y57A9+53pmdyZ3gvngdhCL8Azlv/gz7wypBdQdz2s3bG2awa31oiu4eVJFIWNbU04XctptSGuWDVswRiCR7BvgkLeGzmRMaoIlMFUupTyP+yYUko4loWGD6CpDZ6raMFGmMVbKj9c69xfwkxRFyR2u3Ycn1jmZhzKa/qV03YRjwA8p94ASTrQWpzys/8JsjjM9yD7lrAMBKyGK8mMdWXSEl0KyqIfeYr6AcfQRcVYH/2YybHXU0Yj/Ppf4KW1MJq1vtuwv+bn0NhQVtefd3RV4jHamipfxsn1m5tyoc/OJx4pArLl40Ta7chKht/oIhYJMEPSF+T9M8csl7dQei4E/XxY8ioO7/9AeqGpXP8nleSWR2naEcdxQ+9gBVNE4/IV4CONMFfBSAc88j4fnUnvi98sm1CEhZrceppjJdRHDyrsy6CcBWWv4wqHpao1ujxD9LyWnoAIS1mPPGduPtext3wvyd+4DSP+MaCy1g1Or/rXjVMqqpj7r59ZESjhl8gX8iBSAu59a1MeisAwTzUsOlEZr+XjXa5KWAlaY2jKDChA5GlllRGr3VtgarIDrbWi5u4581GwgoRt9Z4EdqLJmX7RjC34ANUuhU4jssqXjFeGvEEiDs6k0yjhyBNvAniYQgT7haQjFHjmW7NpNA6pkuh43EipTOwP/4hrPfdgBpWhH57I/Gf3IlenlqdDv8zD2FfcbmZh9YOTXWbqat4lnjkeA6GbaR0tXuMxGr5EidWNy7ciPSTBK24TdGfVmJXiWcmNaeaXBcvLiJekIeblUHVrJFUzRuDo9K0eQP5+5sZ8fIOGof5yd9RScae47IQBvJLZWWh79+VsGdzO4Ir4F/1IvbZizr07mqXivAm5H0dl3Ue2f5WESSj77EbvXMXvquvGsiMvHuPs4AHEIbgK6Ej9TjLvwuR1OKup+oS5Qvu3qtuoSLQ+oWmhducSFz0Oy4X7DrA1O2ru3a3+kKQU4o19V1YhZPAl2GKXr/CVpPVcA5TTEpjsoknQdrpIKPc1+cZ0RGEDJhc+/EFyPY2ruBQy6peu81o5R3MyL8R8TrsanyWqNtgAMO03HdREBiL47pscteznz2EaWkFAYq81uyExDOwyCWPJkQKPZFFIeRF8TA008RC61zG26nHj5033iD2wU8aDf8e1RUXzCXwzCOJ9DfZXKN1HNn9O5xYZ00GX2AY8WhlJ5tYdjbajaBNhcwEOTNJKuzVgL1cEKrLIvcPj6OS0tf96ND1+yi/8WIOnz0C1xo4R8IXU0y65w1y3t7Zj9n0fouutOCpzjyLYMPhbkWO3qq5m6b4UQoDkxgWnIYKR8lfVY59wVJUKNT7oN4VKVvAAwgpm+rUuFDHwzgrfgiNnZXWTo0Zpj6LqqIx/OXcJW3HpdHVtVz3xsuJjVwLSOjmJOTPwlr6z6is4YlNrzXtSdIcxcUdItgJCJyJAMHE1vUB3nTeMOmExvtCkOFqpNmIRe0wXxVQWbeCuNM5dDAm81zDOzga3kJD/BBn5d1Ivn+s2eAFZFRH97Kl7oHWB64oCc5icu6VyEmvyqlkh95CGfuN1yCbXGqoMuEGCTsIt6CBY2Mmn48AhYvsKyiyilN/kVqZ7ssq3qRlzy4u/MLPyNpWhj/eOQ3P99A9+K5/9zHg6MY4sOVHZtNv35QdQjvd1J5QUqgnYU/zrlrZoJOgobdpi5BR9yf8vOf3Elo7sM1YZlV51WL2XdWaFtjblHr43HZspv7xDbI2dU5FHEC3x27VCr02BgdrobEVqF1zCcFlD3epd1AfO0RNZA8HW95o60Npi8nZV1McmIzy9U0oKi1rOI078QDCEHu4zsY/o/ckqu0N5RYOZvP4uRdT1lr9r7TRYcHmNYwt792FqWZ/GHv8JUN5+Sdk7o52eDr+KI307GkKaD++WIsRlBLRmlC4nmy7mHkFt5p5mlK6OmqyFgQYNMUraYodJc8/hp2NT1MbO6a7v6Dg44R8+cjYUTdChS5nt95GFZXMVHMZY43jZec5k9oY7aL66Ag1hgvsS/ukvZ80ppS3PqSbuNfZwRHdzIR1O5n5/Ns05Way8NcPkLdjP2rRPAIvPtnhdBqLVNFcMYnIBwAAIABJREFU9za15U8e23SsjLYQg3gNlBXo0tOQvMGyM0212PZhicRn4tOwUcqHHcgjHjmKZWeYEMcxkqRr/m1ZAfKXbSKQhtO6ESpbMJ1IIG40FCKjRxIryMbX0Ey0MIfmHJHG7p5gaePHci0TXhj+2KsdUi3T9fK6ts3hj93AyP/eSPCOn+KuXA1VNdgfel+3noDy8EYONK3Er0K0OFWG8TIr72ayfMVGp+N471i65nqm9uMBhCH05KXMqPPU54bQjLueqmPZPHjxO8kINzLr8FGGV+wnq6l3JT/Tm+XHWvR5rJI5Q94Og70A2dhXNz9GnWowWQGNPtXK4+ht5ES64TW+67Fbmf7t7zjYtIqwW8ek7MsTGQAtb3Cg+XVzohYi49is8wlaOeT6R5sv7KiOsslZz369m0lqGnv1LqNAIQDhmGdHqjdmG/3Lm3yXkak6kkmrdJg9bj2WUthaMc3KJ2g23s5BhV1uHf/lbOzAqJiwpYyLfngP4x9+Gd+F56CfeICMjMy2ZUWa91NfuRLbl0lT3Qaz0YtXQcCBrMt1mhEegngVustcsOwsXKe9foOFLffoOK6T4GD01GwnSN4TGwn0s9BRb/23/zxWmE/VJfNpLA4SGT2McJYiZ38tI1YdJHvtZqxIX0WQUh89VlyE1djI4fdeQsW84SzI/hDBUGFKHbTEawwPoShjGpl2ARXhzRQFp+K30lSSO6VZnDkXeQBhCD1rt2Ij7ht3DqEZp2Oqonzkg6wRqKyRqImXoUJFqMxEHNlr3VtANu8NNX+j0ZE0WIv67BIafD0T2CQckE8hF/quwC+u9C5aTKSaY1XkBY/VrDga3sqB5tdocUTwRpPnL2Va7nX4pI6DsojpGA/F/2K4BgJWJNQg40joQ8aU0NBBMthGFlMp4B3WOAqtRKjoTfcoD7q7Omz4Nor3W9MYY0nh6GNgwtTecA7ztq6kiTj1rSWjR5FFAzGK397DzBfeYt2X3sfnfbOxjchTwksSbtpFRtZEynffhROvR6mgkdOKR46VN7Z8eQYsoIWo2DnG7zOZDxWmT9tXgCuy58rFtjOJR7tJ8dQKf12cwruW91F0KL1vf6rkyJRHbU1FbX+9jLHtXz+FL+LSEowQDWrmFnyQLF9qhdLkOTXHq4xuh3i1cv1jPK9Byg+k7xd6AKHvNjspd+jmoziv3QEt6cs/PikL6cugykKVXoQqmIgqmYMKZBvlNa+lZgH5Mt1Udx91sQPELR/lOfk90uOzyOZS+xpC1rGTdVcjbaq93wCBRUWf6PCxjCcM831NKwi7tShs8vxjmZxzlQF5j8T/TpCgCS4YHgMw05pPoSpCwgPPuNVMUoVMtfLYoet41j1A2EAHEV7uOsPCJ/UhWms8CDiQ65rbaQNk46eRGMMJUUm4Qz9TVD7XqXGMtLLMJhOL1lBz+NEEWGjY0rORlXgvOmY6JG5IiCjZgSLjbbCEyyAhmlhV698V2hUvg1A7c0zGQdFdL6PCEaymbjgPqT3uU+uq7Dz83/xPnJVP4y77U9vcDt90MYfO7yhENivvFvICfSuQtr/pdY6E1zM15x3kB0pPrbWfRrPxAMIQeZjuoZW46/5riMw2DdMUIGD5sC+5HRUaWhr6Pa1e4tRyoj4RzdUOa6vvIuo2ogLFHAy5PUrPXmJfTbFVYja0Sl1BlsoxGhJB1dF9u61uGQ3xwywquq3LZdRG95sKkcXB6RQGJ1IR3sKYzCW8Gn+RKo4aJUWRVV5sLzWAoUAV0aDDPOTsYzsCLORsLjJMA2fhS3KrpQWqKDKUn1rxKGgRDIZhKpNP2DMoaI1dO/Emag4vo6l2XUqPx4Qc3GgXvIPE7fK5AUKSiivJfE4z2pHUTz/5yzYT2LIfnZuNVSfZHKdRywhhv+ez2FfegrvyGeK//Q6EMnEWnMvG90xordmRyGYpzTyP0qwlfV688GDW19xjvFVTc65lWMa0Pvfh3dC7BTyA0LuNTv4VcgLZ+gB65+Mnfy6DPQM7AIEcCBVhjbsEa7RkOfSYvDbYM0pr/1LLwG8dS8UaTMCQVEgUcuHhnDxiPaS95VHAlb53GglrSQ/d6m5krDWBLCUx+I5te/0TpibDzPyburWNfIFvrL2POQW3ErITOheNbiOvOS+2lXqepeYzzZppDt0SSljn7OcBLbLK6RX/OTvWTDDewJ6MsYbzMK95J7t92UQzJvAZ36wOa2hp3E112UNtYYLeHr6SMIgVaBd2SNzhC5YYzQQl4TGtEroKJvNBAIufwp/+fUDpjL3N66R9PmIsqngUga//JgGK1jyP8/Tf8P/jnajMHGJuhCPht9jfnNCumJP3fnICvQuldbWeQy1r2Nu4nKCVy8LCT3ihhkF46B5AGASjpr1LAQhv/h59SIhgp3GzAqhJV6F3P4215KtYRVNP48VC2Kk3pyhXxw3zP93tYPNa9jcl0kYrcouJWj0L/Fxpv8ukPvosn/EidMcId9yY8YJI0ab2Te6R5roio9SEMM7HZp7T5jGRz4+65bzkPm2uK1UTDA9hgjXZ8B2O6nr+19lNdRfZDQOxTZYT44qGda0Fv8W579AcKCWWtZhrfR1rc0g2QWPNOqoPSX2TPjQVMCEEN55M3VTY/sKOCoztusvdGyD4+lvYB4amTHp3lvF96WdY85a2pRu6tUdRvgAqq1UaWSmjobGh9i+GRyDv/7DAdJMee/z71Jv1G2OVrK/9Ez4VYnHRp0+YZ663eZ1On3sAYYg8TV29A5FWpvlol/XTh8gyep6mPxtr3ifQ9QexJl2Jsk/vnGbZMCVqLl+M4kkQ8Zdsf0naHqUAj7XVfyDuhqnMHUaL1TVBUTwGl9rXUmj1j/gp66iN7uNQy2oy7WIiTh3DQ7PI9pUQNFkAx1qDW89OvZVD7n5yVT7iuRBPRY7KpVFHeEuX86R7pFvOQX+M49Mu1za8jeV2jPHn+ccxK/89nboMN+2lfPd/4mSPos4XRtsB8sMWdpOQFXsKe1hY4lGwMw0wkPoUybTH2qIxRmY6q2ofKqmfELco/t0KrObTiHvg96OmzEONGo/vg1+D5gbw+VGhY6WXo04zO+qfwiVK3I0Q1Y3k+kuZknM1vtZwTG/PWTgwQlbcWv8wIbuQefkfxrI8tdTe7NbXzz2A0FeLnaTrZdM0JMVY7+lSJ2mKAx82NAx78RchqwQloYYzrDlu3ICFdOVyCwdhY+29xC2bysxQm2u/vVlDZLLQPpcRalRr2eaujS66Boni2K4RWxKOQlzHGGaVmI0vrsOUt7zN0chmI5S0oPCjXa7DsNBp4rn44xSrEhaoJSasIdUahevQqKP8t7udOiJmtP60gJQmNoESZUiO8vf5kRpKWjoWBJLAhqjxFQYmMzxD9P1bMxrcOLsO/CflmR11Anyuj0zHJqe+BtXV76EVJJKRiSvvrhM2PAspgR3OKaLZSnAfSioO4/gzCWfmYsWjjP7zSoLb9vZnmaf2PVk5+L78c5yH70KX7cGauxRrznnYixL6JeJlEv7AwZY1HGhO1JMRkDAj7wbjVUiA5q69WLXRA0b3YFPtfTQ5iYyRsZlL+8VlOLWNePJn5wGEk/8MUpqBdiI4y78HTcfrxqd0+9C4SFnYS7+Lyu9cknloLGBgs+zJrT+wnjFpho/F7zMqhsWMMHUOJO4/Wo2lwErkoIsXQ3IGIjrMQb2PI/oQdbqWydZZHHT3UYdoVWgKKGpTRSxSxVxoX5bYjls32PLwJkoyZnY7ZQEQjbqBfXo3s6x5tLjN4CpsKcCEokK3sJV61rhHqaaF661J7NcNrNNSfAsy8XGRNQbRRmggSp2OEMUVaR9DPiyjyfwp2Q3tMxre3bAVZdIwOzdJlxsdOpuI22Dy7CNOAzHdNRi3tMXoeoWO1hggkGxOZjGHc3vmyxQ7RTQHbMPhEFvK6XnsyiqG35sIu5yWTUiLN34Se8lVqMKOHrKK8FZ2NjzVVm58ZMY8JmR3FMo6/vfiUPMajrSsN5kyyZbvn5AAF6cRX+lUeBc8gHAqPIUU5qDjEZxnvgTO4AmYpDCNQb1EDZ+LNeNWVE763OyDOuEh1LkJA7jVRoy62Bre4Ys0eap/01nFEV1mQERPTXQLxJsgm/nl9nUGYCS/xMXTkPAGBHu1TlzHDbCwlGXuTzYBDz7lw5EURR2lSMlWryjTzUbXYKTKIq9V++DO+FuUd1EdspCMTlyGkU6U85p24XRRkbLXyXZxwbBwkIzaA4kKH6ESjmYpwr7ubSf2Cli5nSpiilTwtHs3kbXqrUFRLOzP2tJ5j/XOj+C/+QtddimgdF/Tq221QEQ3Y0HhxzoQeaPxFgJSe6W1ba57mJqoFHk61kRFcUHBxwjYPafopnNdZ0JfHkAYQk/ZefN/0AeHbnnnHk2dUYg18UoskVA+A8MLg/0aygb8mvOSkTiWSolx7ZgUw4AKst3dzB69I+UphMiihYRioI2Pd/veZ8SO+nN6a3QbqNFVptpjnsqnRCVy5AU0HN9iUuOBMPkEyFAJIuW/xtdS0yqG1P56CTOIV+H4lhcPc0njhl64BKmZIoMcgs11ZMagIsfGsXoPidgEjYZkV5UzR5XnYe/dQ8mDL0Csexnk1GZ3ilwVDBH4xTJUdvck3OrIHrbUP5h4n1SIufm3EvIdS20WaeUm5ygRpx5Xx3B0jIh7TD48ZBdRZMJEswaF7HuKWPKkTMMDCCfF7P0b1Nn2EHrvSxAd2lUc/z973wEeV3Vtvc4t02fUqyVZ7sbduOGCsQ0Eg4FQQyih8yAvEB6Pl+QlJCEhj/Q/BEhCAimEEnoLmF6MwdgG3Hvvlq3eRtNu+b99rkYaSVPujCRbZQ4fn8Fzzrnn7Htnzr57r71Wl927SyAMmQNh2CKqD0vNOOlRcS3g1/1YqrzI3/wjmw12rrqYTCPdRXI06I14BMZisjQtKiWz2Tkp5UDzWWBoPcRqXj2EN9T9OF0oRrFggN7+HNqMvTAkkjvuS4Q/SiRkZqAOxb4dZpcWtx+pW0aGuc1M6hQL4FXb04Q2IQshzcspsK3MDZ9Wg5JPDiP/3TUQvJG0zWZm74N9HC5IN/0QwoTTeJlj50ZOXpO/Gnt973DK5EypHHY506iSgYBmpRJbG14C4WmsooczdNYG93CcAjkFAa0ZRfapcIq5EKkKKp1i6NGHIO0g9Kg5e3cy3WsAcrQtz0I/vq53L3YiZqcyudzxEKf/pwFKTH+5e8Xq9CO8QV2DnfqWLvMn6yBkIRd1MGSQCeBIpZGWVhGnXll8nEmNCMJaNIN0PNujBbmw8ahCNJDjOf4q2P0dw9Opr5uiHObJnJwiqY9KrdTXxlXtQjZ8Wie5aV3H+FcOwf7pAIkW0vc6Kw+WX70IZmuvZqD9h1NLVGkjMAtEwQAnUgUOIWL2NL0HWXDAJQxBs3YYFG3IsgxHo3IIU7Ku66LamnYQUn+ao41MOwg9a8/enU2nHyMCRzVB2/hP6MfMMb717qJSnN2aAXHO98FcabxBKhY0A2ikPlvVjRwMGEvRkSoSiNnQbCMtBcIoUOUBNeJNmCRMwxCh7IS/va1Xq/GqthfeVvlkolWmigXOlhijWTQVX/HughQDrGjWDtSPhKkCSeAZLMyJoN7SIb1gF3J41KBzc9SGMObRZRArq5JZUp/uK8w9D/J//BQQuqaPqGSRSh49FiPFFFCasaf5Pc7YWWCbyDU9KgNbMMQ+Hbm2sfApNR1KgtsxLFT5cGKYSvu0sXtocWkHoYcMecKm4U4CsGfjpziwezNaQgJybUGcKq6HkGJZ2AlbO11ItILlT4Aw/iowkwpu8dZHTAIU6h4sjYdkQxVwy0UJD+S96i6s0Va2KSbGspENDvijAP1i9SfNBsIMhBtFIRzMBQccvLSPJJ2zWW5UsScCJu7X9vCqCAdzYqwwAR4hI6Xb97SyA/t0gi0aaRNiYCQwY7TUQuQFcjUNE3yHkBWiqoj4gMx4CyNgHIHsKEGSqFHhJb0RR2vkaFCZqKq3Oza2Jg2FG+uR+9LbiabuV5+L130X0qLLozoJkRvxK83wa7Wo9u/A8cBGjPNcyu9VtnVE3P2acZz7lcFO8mLTDsJJvgGpXv7Rz4N4dKXxwyQwYFx2I37g+RtK2QFIutIhWh/UZaicjV6HjZl/W0x1bTHHUV5xwjcglC/osanD1MA9NuEAmYgOYiprJGGk6I3BgwwOMqT8fzPCDIDmDBCOPJBzQdeg2oXIVsKGYrZ4RhcnZru6BRu1L9u6yrBwCWjiRCgUjLfHaGHi8Bti+DNV17FKO451eiUO6IaWAbmJObDBAhGVvMAxPmhwaqAWQ307zW04Ri9zOARe2R+nOoTBIeagRTVSN9TEFgWTf/kml0UeEI3SDBnZgChDmH0OpMsorSglOOw1VLRswr6W9zE585oeJREbEDY9AZtIOwgnwMi9cYk3dyj48dsBZNiBv1xqw7+3KnhmbQgF1ibMzz2EQiuFMo32Ts0YHPI6YRFU/KX0Dxiq7+2NJSWck429FOLIJWmsQUJLdb8DRQ++1D6LOZEDLl6JQBGYVBpFDSg1QUdfZ+eAH3CQOAFTLvLgEtrBafvU3fhCM3j4IxuthyohiMmAog/jhMlwCgYL4x51Jw5p++FhGZgoTuWcCYdQg7e1Kk6oVIsACuFANXxtTgE5C8SXQNElUnOM1ooUH2Y1b0hl+21jRFggC074NeKI6NwYCGEf0prbcurRLkZzGJUNEU3XUbq6BgWvEih5gFQ00PaI7bCoFPL//AFCbnwNBgOLoHKehFLnbDgkc0yfRMIkREljdOtGD9LBaQehn974LcdVXPesHxOKBTx+uR2rDim4/eXE0YFJrqP4Y/6vIccId6ZkDgIbWj2AGuJvCPBH+7EExAU/B3OnJsyS0roG8aDd6g6s1VZFtQC9/ROWoCUiTZCsqcgBIFZFamE8Qqw53MjgqYShwnBsUzdhi76+S9fOYEk62CmVQWJRx/WKiANZ5NfTIWItyqhQk8cKyCGwomvlAmESqOSx3XVov7Ss67ig5QCYUtchvJ+sLUgLgFIEnUsXjb9PXCESazytw1UVQtGyHfCs3gxdECAo0dMUya75pPWnSEJhGeRbfgJh+HhAjE2PHI4aGaRSDBaxnQsh0frTqYZEFjL3edpBMGenPterwa/hzL/4cNFEET9YaMWW4xpueK6d1S3egl8Y+QBKtT2oRxbqtAwMEY7CEjMUTa+DNuOtX7IB/nqASEuUFiDnFAgFUyGUzYfOdEO1TpKh7n3HKMfMGQMcWQVoxhuceNb/6xHcQZ+7GSdhQYnekvZpu/GFGu1NnTgMfG2He6pLp8gBHephPgQz88QDRLrgiQmkjJw70pHwohy7YeFRA3IQKPoQSyKaiJUIzBiZdsiAFXad4QqVwI06jvrWwqd2qihIuDEGq5CJQJcIAoOFuRBsTX/EmyZqBKHDAIbsWhsaMxSULd2EzFVbIPgTvwwkXPrJ6EARhIISCGNPhXj2FRBKRyVcRUj18RLGZMWcEk6c7pDQAmkHIaGJ+k6HSK+Y/vvJdSE8/GkId5wuY8kYCec8lvhthXazMHc/fuH5LW6tugdbmguwMP8Qfur8bQyQI4Mw5UawgqlGdCDUwiMF6uoHuCQzK5oBcejpHdIGBNyCpgKCBC1ChVI842dgnpK+Y9ABshJFU7gCY7gF9SCWKi+14Q8ykI0g/PwfestNNa3Q2VyEYWhMErsQy+TkcNAhnygakY08ntqgqowcFOJL5CEABU0mgIKUcqDSRwI1EiKH/j2V5eNicTgExji98rq6f3AinmQaOQhE4GMRXDyVQFGDUFvkIH4KR2aumJTO4TUIkLlDxwGVOiC1hDDq1R1wrNmYNDxXd7mhSzK0rGxI+3Yns82e7Wt3QbrjFxAnzkk4bzoakNBEvdYh7SD0mml7fuKgqsMitiP2A4qOK5/1YWKBgNtmyfj1xyF8stccKrvAHsBxn0FK5JaCeK7sfmQjotyKRINK54EVTQPLGwfWSdqXOwCkRqgFwOSOtc2RO9dr90Jd8TP+V8K02yEUT+t5wwySGQl46NN9cDEXz/tLTAb9HYkfUX6eWo1WjVXqx21VBsmWMSZjSjrUw2mGZMbF6ku8Cj4T1RQEatyj78BINhXPmHhD73w9SjuQc0AuCZE43yyOQ55g5/X3R31rsN/7cZLbYbAJGfDzksdkMB0MErO2pidiX5JWakQp6jvYO2ePF4UfbIF9e+KDXnO5ULH4VFROH8JJmeSAhlP++BHgbYbU3I5XSnLj3eou/+hvEEZPSTgHiZiJEQ5wwgHpDj1mgZPjIIR519PEOCnfyMpmDU1BHbe/5kdjC/DpfzpQ79fxzZf92F2dzI8UVUHoeKD0ccyS1hjrEW0QJt8IoehUA1TUjabt+wja5icMB2HqrRBKTuvGbIN7KDkD5B7u1/Yil+VzvQL6h/AARFdM4ko7tK0d0PIGet48mU8yFg5rMiQzJl7fzuWTsfpS5CKfFcGDUrylV+MgjCqGVNsklourxdE8ikDRr22Nr6EheMhU+WLkNa1cZyExyynFLkQmQ2QWU/3D15AY6QxoUPVgm6Mgq1bkbD4G24EjsFe1AKIE+ehxHLniDOgWCzxfbEbGvnpUzR+PozPyOphIDOpodhZj5L9Xoei9rumoVO1palzZKFj++/dgOYUxu4cjBy1KLeyiwa6YSutcAZPKHIN1zMlxEAartXt43z95P4A3thigpf9bbMHiMTKeWBfAHz9VoCZ5JhS4VbyWdyfABLAR50Mce1GPVBtoe96FtvUZvkY2cgnEUy7j/61pRGgSvaSth8004KcjpcZ/K8/zqILBCWFEmay6HS0kIS32Tr6agI6KidC+2RvghBtek4f9GDYek8RpaEQQv1XWJeQ+SLSGuawIF4jlEFsPISLu2VT/XAeQIZH1hBn+os1HqYDEnAjmogbx1kt6DjYxk6eK/GptB34Fl1gM6/Fa1OS245EcQi5atPYSSpqbUBu6nIUqpxWqruCs+16C48DhRGbqmc8Zg/C1b0Fecn3c3xg62A0ngbp1zzngvz/pF9Kk71/aQUjaZH1nQEtIx1vbQnj4sxDG5Av4yyV2qJqOh1cG8dSXyaGdZUHHh+V3QxY0o9rA2fFtI9VdEz20uuweQFPASuaCTb4JuzYARUONGT3Zg4fkKFUbxhtHb7xr1FXY2yq2NF2Yi1yWxw8PVbXhypU1uGD8ZuR7jvX45cMEVT2FaUjGQSCw4hLpUq4BsUGtxlNa9/QV6PgZz3LwDXEMP0joYAppLagKbOfKgR6pFFmWcvi0euxqejOqLUVmg8zsMUoejSFEmCQzBwJ64kiDmRsmEnukQOh+hqBmcCaQo0KAPvqX9kGYCpXjT1obs6DJlYfGCMex/ICGyT/9g5lLdrsPKxsF+XuPgHnaBZmiTUrPdnVgN3Kto1I+3MNRCCqXTIMck791fcdBoLQDeXjhP5Pfy6AdsWyvgp++F8CbN9hhtwh4aXMIv/gg+drpUzMqsMC+BuefuxgeT2rsdl1ugq5BXfd36EdWQJh0A1gpARqN21xzDMgrTjsIqT649OO3Ql2Go/pBPkVLcxms3lmclIdaQNPx0FYvZFHHaUMPYNbQrRBMKA6aXQ+BHxuQLOo/9uzEhZBM6eUMYS6GiSOh6hoeV7ZjO6KX15rdD4EYbxEnoEH3Y7zYXnMfDlFv0WpRAgt21f0LQb0rgRFFGIxyx/gtWYrmRPO1nftENM0o8WPlgEaixFajrIcJdhz2dMQNFTbYMOuuX5u9VLf6cQfh3n+CWToKs3UEYRMoE1zIyip2FHlKgxa7Zf6kBvcdByHestNOQ5t1ouXTdteouPIpPx7/ugXjC2Qcqlfxsw8DWHsoOSwCXSTPBbx8rR12ObWQXtQ3AV8d1M8fhDjrLugWD1Sl1Q+k9x4BkOS0k5DUt7a1c5PeiLeUV9qGHjxwLp7ZFf2+ke89JFPDheNWwm2vT+VyXcaEHZGewjiYBSlGLoSiCMSV0KQE8JC+EfXxynUT7Jqewq8Jo7BSO4Y75EkdelfrfjykbMC3xUnIYVY0ho6gKXSMl0USRbJXISE1BkmwQhZcIPEhwhg4pFzUB/ejRe2oqWAuHZHabSKFSKqkkLn2g4HP4KRDrekgzZKJCkd71YsU0rHovpdgP3I0tQsmOUqYfyGka78HWKxcDZPYKHsz/J/GICR5gyK6px2E1G13UkZGe9g/2R/CXa8F8c05Im6cbuVftj01Gq54ylzZY+RGbp4l49ZZcs99YVUFesgPSBYwKpNkDK/9Xcess4H8YqC5HnBlETV72klI9oE6qh7Gp9oHfFg+CrF+/zw8uTv6PffYBTT6NEiCiltmboTH1f3DgFIMhLCnN9WeaBbYeDlmMm0cm4wJ0hR+AD6hbsdmvXsRDapuGItsXC+PbVtGsx7CL5U1yIIVZwulmCTmdlgiz5W32oDsEcaAUCf6LvqUOmxvfL2Dk0CWM9gbkgQLmTBOR90H43tFoEgCN1JTLZk4FuEgZB6owRk/fdrEzD3QJX8ILD95EszlQbNShc0Nz2FWzrfaMAZky6DWAqsYuzIqlVVQuiJVHEMq1xsoY/qHgzBQrN1L+6Dyx1UHVTyyMoiffcWCkbkS/8HcWqnxqoYWk9kGest852Y7sh09Fz2ItuXaKh1KkCG3iMiVjB6alo4kJPN4HNUOY7X6Cec6yGOFmCcuwu92BvH83ugOgiQCSus5LosaJg+pwJmjNgGse4c7HXQU1CZNBTMlivH2SNUY0Wib448RsVBcjGwhF149hGXqESzTjyRjyi59bRBxBhuCQ3oTL4MkXYdD8KIAdnih4HJxJMYJ2Uldo9K/DQeal3NrhXQvBCZB4eJMyUf5El2YohOSYENQM6IHhHlQeOWDAt2SDa8so0Fuv+82v47iTUdQ+uEaZO44kGj61D9xfq+hAAAgAElEQVS3OyD94C8Qy8fxOfY0fYDj/s2Ynftt/v9GyazObdPTrbtpicEaheh/DkLndEM6/dD2XXpjewh7azV8e057bu/ed/1Yus3cIVCew/DiNVRK1f3GVQfrgaZ6BrtTh9PDI4ptADD6XWQCQ3Oj4STQ59R6M9TY/V31nRk+UN5EjV4FEks6T7oYO5qA32xrxqba6OBUeo/seBTpmFJYj3mjNsJp7Z4gUCBkx9ajwyHKjSh2+5HrroLuF9H81nDYhjZDmlrRQTysp604R1yIEqHMOGR0HX9VtmInupdGIcEnI4tvWI0iC9TC/0+OwxyhCOcIpaaf2aDawt+YDbbGrnekJ+0SJmBikGARnNB1FSG9BQFHAaosMbQpDrRgykMvwFIXXbjLl58Nze7g1Q5Jx/usNkh3Pwhx7DQeRVS1EHY2LUV96BBm597Rk1tPz9WDFuh/DkK8zQ9yZ0HRjB8zKSJc7wvpuOifLajxJn5qLpog4odn2hJ3pDd+nTz9rj8TPHLxBfDcHwBXBnDsEENtNZCRCdzyIx0jxgNWO9ErGGM5WjwINNYCWfmGCmzaSYh9C8heft2HN9QXeaVCMSvFXHEhZr1bE7e0VRSMKE3n91WrrOC2GetgtVcmfYjT162+JQMvrJ+NOl87X8aC4VU4vKEIo+/O5AfJkDNrkfHLDyBkt0RG36NsMrVDk9gV54kLYWU2/uxUai34nbq+7TA39UBH6UROAFE0UyO9B6JqDjsI4e7nsaFYKJlnB6X7V+Fbx5kWD7eEtTJS23e8fVHUgBwCahlyOVSNUjcMB20++OTYb+jDPtuLSX99g49T7FY0jRkJxW2HPz8XB2eOQHWuiMyAFTN/8TTsh+KkqdyZ0J0OsLwyCJNmQ5w4G0Lx8A5ljZW+LTjqX4vJmVenw/+pPqS9PG5gOAiaCt1XDUK/Mc+QXjZZ/5v+9td8WLU/ca7zumkS7pjXEVkca7exHISDO3Ws/gCYeSZQWApUHAQ2r2J453kgFALcmTouvQmYeZbhJBAfAuEPlBD9aYAW0w5C7GcsqAfwvrIUzWji1QqLxPOQLeRg3gc18AVjh6tlSjGQgxCliyRoWDCiAtPLNhiaGiaapjGs3j8DK/bnQtW6Ooq2RgGLvp8FFjI+s7hVFH/tMJzfXQ4mR38WifWRgIqpNCp7nCHNgYM5Ua8H8BtlHReh7smWDzsq0TGFkw0bvi8nxw66o+FN1AR3tJEd5VhGoSa4q8eWShgEIlXiFQ1MRql9LmTJhs31L6DGkwufELsEOqtOw4TnP0P26rXYe8ki7DpvOoIsaJBtRdzmmc+uQdG7KwCbHfB3SmvJFginfQXs6v+CYHNCEA0nq3MjXEBj6CjccmGvpBV6zKCDeKKB4SBEMDPqzRWANQMQZAMUN8hbSNXx9LoQ/rAiMb/8zDIBf7o4sWLa9iqVi0NtPKpCFBgmFgm4eLxha1XVIYoM1RU6JBmgUmdyBHxeHdvXgjsPXyxjmH+ejoUXAyXDjc/JQag9DuSXJB28HFR3uCbkx2PHt/LSPsrZjxQMMN0D27zwh1JzEMIGnFBQhcVjt0KU46ccqpry8cHOsThQ17H8LPJGyCGGhd/PgtzYEc/iKvUj77ZNcF66A7B0PMCJFVLphsroTGEeysURCOgqfqWsMaXPkMzDkwc7qjo5COcJ5VgoJvdSQuqEOxpfR0PoEL/8MOdCHPAu7xGwp1PMxyj3Yj4XlV3aRA9/O1e0INY2PoPDDgEKi/+yYG/RUHg4AFuTH9unZcODrC7lrIIu4JQjLowNDQOOH4K6ZhkQ8EGceSaEKacDzowuZYzxbN1djEAy9zHd17wFBoaD0Gm/uqZC2/c+VxlkcuIDz7y5+l9PchDuet2PVQcSRxA8NuCNGxxwWGIf0o1+DYv/6kOw9bedshl3L7DgikmJnbFgQEfFfuDlvzJsXwcoIeDrt+uYNh+w2ICAH8gpSDsI8Z6yFlXHrZ/XY2t9cm/HkgCegkgUHxiaXYMrp66OGknQdYZ91aV4ZdNEHo1I1Ka+70TR8/ao+ers4QHk/t8KWKYfASRjMgI6Eugy1VaKcsyWz+DDV6nH8Yq2u0drBDonAoazDK7jIKfA8qdoARzwfopc62hkWEqxreFV1Ab3pLr1tnFOsQCTsyhk3/V71KTW4gPtXS52Fa+R42mJAJ2ScoUDTp7SCjNdlmAoJrPpcIhOfn+Vj17ixEfi9DOT3gMvwSSHt5u07klfOD0goQUGpIPARYTo3z1vQRi1JKERBnIHb1DHwj+3oBWekHCri08R8bOzjVLJaO2dXQruebP9B+aSSRK+d4aFRxLMNLovny5leOlRwOEEGuuBmYuAK27XuYPgyWLQVLp/RCtvbk4z1x1IfZpCGha8n1w5X5iDLLEddGQ5/fjG5O2wOzrmmHccG4ZXNxsIdDPNIwqYd1N2TEAbE3VkndKMon+9AYeL4gcymrqhDpmNXJwlG993es526g34u0raFIncosS76QxSdEHGd6SpvMqhJ1Ji62ufhFclLoXUG1VITMm+DvY4vAKH1UPYpH2JJkRncqQ0DzkCRFrVmQSLKlZIltuLZswXzkK+2K6joFUdhrZpFcSZX+EljMm2dAQhWYudmP4D00EgEF3lZmjbX4I09weGTPEAbuE8fqwtPrgigCdNUi+XZDA8/w17B9XI8LyNAR0X/7MFDa0pRzq+/3yZDdOGJCfoRJEEOZyWbK1mCAV1fPQKw9vPGpEFVQWmna7j698GHK60oxB5b/91yIf/t9kE6rTTA2HeSTAG3j7nS1itNaioH4qtVdnYeCTftKNJ48fUWTHye7HTEOHlSbKO8gdWwXbezm59S+lN92LpSk6/HG4btRo8qW5Ped4s2NAMysET00G7o5EBK+6RpvWIc0CLo5K/Y/71Ka+z1DEbRfapkDntcuxGB/Fx/Rg+Uz/sks6xwsbLTOkfctboX3+EuiZRYRPTZQGKMV8+q+0i6oqlUB67j9fJyD9/DkLxsKT2YdBBqx0ky5OaIN251ywwYB0EPdAISDawGACZXrNoL08czdMmcJo9TlqAxnxyQMX/vhFoSw3EW+a358mYUy5hRDZDrU/Hvjou7YJHV4ew5pARDiZU/MRiAfd/xYICt3kHobFORygAZOW1VzLs2kgcCDr2bAaef4SuxPGm8GQCmdnATT/UUToyesVET7y99fIt6/Hpg5qOue/WJHVY0yLcNoYmv/m36QKPH96gDc3JcRe17XfSfjtKf26O8Gbod7fAfduX3bbVqcJpGCmOaZvHr6v4hfIlr0KI1+jpomiADwqcPNlBhMUCKqLITw+DBwvEEoxlmVEreVLZREPwMC+BTKVRxQJFDiyCOYCnT2/BfnUPNulrO1yuc4onkvqaALEG54XMpcXni2dxNVFqlF5QH/8lUFwOy48fB7Obu+fhi9dptVyV1MbskNnAfplL5f6ezDED1kE4mUbtzWvHqh5IdE1yEj4/rOKx1SHsqtLgTZDqdVmB0fkC1rY6BGGnIJxJsMrAd+aLOG9s7HREtDW9/4KO1x4Hps8Hrv2uUbFAgMZ92wB/C+PAxs2f67jgeqqCYGis1WFzEodC9ChC0K9DbuVXSGSDgfT5gg9quNx3Mq3QI+JYY3LYBZsF8KcIC5ixzon8R8xhgIbesQvuuz5LZjsx+47VxmKiZUZb6dxurQGPqVtiphroyfLAgoZO+AcJjGMYwimKcL+vi6MxUughrZLWXQTUJqyp/VsbI6NZQxCd8sTMK2CX4gsfdZ6PFECXKi91wCN0Jqoi3EEIIciQ+Z/kINCfLriRwTIxWzyjLYKi1VZCyM43u+wO/d4KvcpTS6PYOEyVZqQ0R3pQ71gg7SD0jl377KzkKOyp1XDNM/42Zj0zi6WIQWk2Q0W9jmwn4AsBL11jRYa9Y011olwipUN8zeAphlgHOx36Fpu5tIKvRYPVxvo1VXMim3W+P8ScOe/9+LwH0e5paYaIQw3JOQjkCAYSF8BEfYTmvONC1kvmeDWG3rQf7ns+NvMoxu0zpElFcVUFSsq/CdlqsB2SfT/SjuAj7TB3BMIqlBQtCEEDiTTVxKB4tkJEoLVcsgRu3CaOg4WJPZZaCG+GSv6+rHksqghUrA3bhAyM9XyV6z0kG0kjm1C5bB1q+PSUPgjAb6iAtkZbKMVA5Y2RVNrkRBDjIRWkThamoVQoT/ranffzQegt1KASOSwPZ0rndfsZSE/QcxZIOwg9Z8t+NVNA0fHOTgXv71bx2T5zh4bbBjT5geJMhgwrw5NfN94OiaApkpzpRBqCAI2hkA6rrXfpoXtzT3VBDcQbZRWM9IqtlUQq1jV/s8uLNw8H+JiWkIaASWXvIo+IiiQjCC6bgGa/iZKFTosVNeCM32TCvsccbW7ZlUfguf/9bpl5SLOAkqM7AS0Id+4CZBed2+YgNOpBvKzuxdZO6pMEPqR/lBj1DuXwYKyQiTEsCy4mI5OZ4wlJZSP7mz/FEd9q00NHuM5Gob2jqJTZweSQLFVeRgu8nE9jljgfW9UN8MEXVw8jnGogt8GNDIwQRmOEMAZCZCVHJNlGDLBz5Do/V1Zgv76b63pcJF0BmUXnTTC7t3S/nrNA2kHoOVv225k+OaDg8c8NmmZZYJg9TMCcoSKeXa9g01GNo9CdNsAiEnMekOMC/nu+FSOyBdgkgMCLlHqwSgzFbgY5wQHXE4aK5EYPqs38YLWKrp6Y+qTOURXQYBUATww1Tdr311c3YHed4RVYJEBiDC1xOBAiN0SESSFz/iAflucSUNWcnINAz8vYtXYM+7NRApeokQR16eXH4f7FO4m6xv18RJ2G3OMGIFG05KJoxLcgiMSuaDiPbykH8KF+OKlr3CfNgr0XtAGiLSKgNmNt7d+gxcFLkDNjE7Mx2n0unFJ+ym/vBArcrK7HEf0AJgqnolQsx151F9Zrn4PAnvFKIQnMGESQO1ZWWFHKhmGyGAHYjOClSWTsZq0JO7Qt2KPvQDErwzxpYaIh6c9PoAXSDsIJNHZfvZRRhwwEVIMsjQ59CllSieRlT7XAZaX69/Z8N/3cluUwHK7TOViR19frBk3yj8+24JzRpEtv5mhI3SKRDgLpOdC7t9PTf6MIZImAatjYEodN8qhPxaXL6xCMOLPJSaCRJNFN6Ydcu8DvZ+dbQPiVisb4hz2NsVP6RxDgkFnSEQda/5C9Fkz+pbstlJ/oLo/55yeQZhwEs5kMhUSbUAfGHzwIF+WvWltmwblw5cyGKBpv/f9W9uET3ZyKJUUWLhZGYIaQ3+vPcuR2dja+iarAtpgmc0lFHHNAb9vJphUiJzW+P5Qs0LhDQHOFtBCWqh1xCbEWQhogVOFAQEY/fJgknIrRYmsJbBKU98R/8KryLE/2nC6ehSIhOdKpRM9W+vPuWSDtIHTPfgN+NL09/uerfuyraXcQCMDY3IlrhaILhRkMDT4dj19hR2nGiTus6ceuyr8N+XbzNfp97cb5VQ1eFaBMiZNYjaK0kKbjp9ua8dbBrkQ35MSRU0DaG9HolGPtlxw8t1UApZzov4OKbqrSJZ79Fvw9A85V5tDojiE+DHvrVTBXikjI1oUQQ/Tk/QdgC6kQRAd0PQRdC8HmHIbMwvNgseVjq1aLf6ixD1/C6Z/GCjFRyEExc8JxgiIHkbYkaegN9U9D5UqPXZtLIiKka7r9+MZSJ1wRWoYjSKzoSNTWfvi5kifZjfgTlsiXprSu41oFdmpbQHLfpwqzIAvmnp2ULpYelJQF0g5CUuYanJ23Vqp4+NMgqlt0nk6gg0jXgHofpRUAm2ykFyqbdGTYgOeusSPXeeIcBLorVRUq8orMl1v21zu5tTGEG1Y2tEUIKHpDjd78KZKQDKCQnAoaT04FNaeVwRvoWhlBjgNhTMiJSNQIR3HmLdlgurkIUt55R1Hw0HtAdx8XchAqGuD0eaGGwkqODKLk4cYpGHYLmmQXfq2u7SK4RCsdwTJQBjcWi2XdejNPZB8zn+9r/hhHfdFLPq2CB9NzbjEzTdw+sYCx+9Td2KIRFsHLAYvhRuBESifQ31FqIVzZYcA8DSAjyW7nCQVJr42iCBvUNajRKzFcGM3H5zFjHreQPOlS0gtID4hpgbSDkH44TFuAQtT/3qbg5U0KmvwaQhrQ6AdaIl7+iFnxBwuNkG6YwClZlL7pBbV2JKBiWOSJNB0k2dzhlOx1+kL/2qCGOzc2oYFyDDpAWYljTQaoIMchoKYlMV6AHAly8sKpoch95TkFVHnb53DZGJpbuRMcVoZARISCpzEoJWVlCJHzoAPUZ+7vMyCsMQdOHP2/O2D5j7CqYeoWFngE4RAsgaYuk4hyFnQtiMKRd+Jhtg8V8PJ1F8CJQubAfKEYpULfwa/E40QQmQXTsm+BLJirDolmUSqptLTut3OaQtEVvKW8ggACGMJKOQXyERwE4Q6oyiFaC/MnjGBjcKo4K2kHi1dWaTvhhIuDJKmsslFrQKk4FJ4eLidN/QkbnCPTDsLgvO/d2jVVLRA+4b4PAli+uyOR7R1zZVw33cJLy6h1J09qdpHkiNAbNM+jBomlceA6CPtbVNywuoG/wTllCu4CPkVHg0/jURzCICRKMZAjUefTohItOS0MVpmhrtXRIHKlRl/rvSQpcVKFVI1ohcMi8OuGHQUCQJJGx5gtVsx+2Y0qQ4soZrNYdYz+82ro83ckLTXdedL8oB1D92+AoEXHMYhSBkQ5AxVDL8anqMJsoQhThFxTOgqkDlmrBzCUuSCmoLtg9jkO9yOdhtU1f+QYgWhtZva3IIupOwiNoQq4pcKo301VVbFb34Ft+iacKs7g+IRd6jaeTohFgx3mT/AgE1+RLuhY0WBy8wRW/EL9jHMrEFlSpXaMV1dk83uUTjmYNGOPd0s7CD1u0sEzIakHXvkvHw7Vt/+QPXyxFaeVtof6zToI5FAse4XUHhm+85COjSuBqfMY6MdSgFH2xPUZSCJa1bkCZLh5GwmgOHCdgsgnyqvo+M1uLz45HkSjT+PAUDpHyDkgPQwOdNQposJAhRCdmRPpwKf7Fq+SgZytLJvAbV3VnETJQ+tCLUGGC/+ehcAGAVqC4Y7hXgx78xWwTsqO8b5FJAldwsqxW9/GQ97uIMO4vVvifvEEyQ1oCjKLlsCdHZ+MR9dVBFqOwOYs46qZxMZIKo5lzH3CAIuVvi3Y1UxVHR2dBJuYhWnZN3brR8arVMEmEAtkVx0JRQvhkHoQG7EGU4UZKBMN2uSD6j5s0Nbw1EO4EVCSsAcKF9ZWkYlsnC2dn/RLgaIRuXOIRy0oWeFkLu4gUCrjC20F50Zws3SqoVs3PcXBaQchRcOlhxkW2F2j4b9e8+N4k5GxJB2H4dnmEsoqAeICQOVhhn//Q0dzI8OdvybZZ4aPXgVyCnXMvwBweRiPSISdDZKUVkOkANnuFIT1Hcw6JP35/h1oDuG96hCePeDnHBSx6JPzXSIqOx3wpNTZEoWBkXCRFAkgh0Mi+W1Fh01maI6CSUhkO1edgCX/zIRvp8Aps+M1i0vFyJfegTCqKtG0bZ9TKHqhtBhvKi/zA2VonR+Fx/fGHc+YBZRqyB92I2RLZtS+5Bj4mvfAW/clQoFqFI/6tuk19URHTSOHz/juEE/B5oYX0BjqWJbploowKeuqbl0uqLbAIkanZaaUQoV6BBv0NZgvngmXYGhpUOphj7oTm3XCcBheXwaXga7j/01v+6PYKZgsTU96bV61GXbBwSMPDVo9NmvrMFWcya+5T9uDQlaEArEo6XnTA7pvgbSD0H0bDvoZfv5hAK9tVjC6kOG7862YWGgOLPiXn3ApeezdARQUA81NgMMBVB1vN+nltwFLrgH8Xh2SBVzHgYSc9u8w/jtM+z5yIuk5DI4oQtg6v9nejGf3xRZKIG4KOvgp7C9LjGNCwqBGmiNcohqej1ILVI0Sdjg6f272Qb/kp9lQjhsHXTwHgebPKQFK7l+L4NxNZqdHORuFKeJ0vKG8CLciobTyOOyNifgNJFgdZSgccWvM66iKF0d2/JLjFWRbMYpH3Wl6Td3tGE7J0TxhJ7c2uA/bGl7uMLVNzMS07Ju6dTm/Ug+bFN1JIgehUjmGL/AZlkiXdEgX+DU/tmmbsEvfykmSyDkjoiV6NThdWIQisSTpddH1aM5xwiQ+TzMasUFZA5tgRx4KUIMqTBCmwtqLBFVJL3oQDUg7CIPoZvfWVn/4jh+H6jVsOaZj3nARD5yfWJ/h4C4dP76h/UB3uIBTpuoYdgrw4qPtf0+UzKTP4PMCeUXArEU6dw52b2EQReCm7xOTIjDrrMHlHNC9rA5o+P6mJqytCnFyqgwbQ423IybEYTUcKso8WASGECnnacSZwHj1ghaBaaSIAaUXSPyLGlU5JBtBGL7Pism/c8OVRXLdQFWcc5tUgZu56rCOse8shTSqBvOERajVa7BV39DhcS1nI+FFE7x6Mw8525kDJDq0+/gz8FSZU4GkioaiUf8NUYquD6EqLa0OQgAOz0Tkll2ddLi8O9+xzrgd+v/1dU+gRa1um3aM5wLkWEZ1a10UnQiTR3VeL12zTq3BXuzCdGl2h4/pM9JiaNG9WKetRo1ejTIMw2RpGqzM1iHKZ9YOVVolL5XMZFncGaFr0P3frW1HJsvmwEUScSKBKEuaYdGsWXusX9pB6DFTDt6J6KA5WK/h4RVBfHFIw40zJdw4XealcYcadLy4KYTyTAEzykTOj0ApglceA954yjjUyQmw2oGJM3QsvhK49ybzhz05Cdl5wE/+psOZYX7cQLlbzYqGq1c2oCag8QOfykurI6oQOqcUCGRIjgL1ddoZmlsBiGQPKnMkZ8LfWs6YrPojzbHwSQ+yv7TA3yoJHs3OFEW32sD7hAGVw/76EQoXNeBc+SI+hMLZFLY+pO9HASsy6Hwh8PB2JGjtwP4/A037TN9Om/sU5JVdDSFKrX1kBCEj/yvILDjT9Ly91XF303s47t/Ip3dLQzAu4xIc8H6KIY7psImp5eXpECaKJCFCFju8fn5Aa9VYo63GdOE0ZIu5Ubf2ofIWx2dMF2cjSzA0L5JtVKlQpR/HCNEobQynEY9pR3BEO8hxJm4hA8e1oyDhqHSaIVkLd79/2kHovg3TM7RagL7gVzztQ51fR3GGgFG5ApZuUXD/uRZ8tFfF5wdUPHWZHR8+KeCtTsq2dGAEUpQVzswFrvsfHWOngCs/DgYcQuRD96OtTXjzQDuxDr35U5UJHb7x9Bc6YxSy7EZ1A7Vo+IVED7rDK+DM+7Kg1THQPWmoaXcAwmNzhwDVR7rONOoPKzHt7EyMc5yS6DJth4muBVB96Bn4mgx6ZbNNtOQgq2gJbI5hEEQ7f17o2W2sWob642+DCVaUnHIPBKH3dBdirbVzSXBD6Ai21D/Pw++zcwkTIWB19cNwy0MwPuOSmJGARLaIV2W0S9mOdfpqFKAIp0tnRa1K2KysxwRpCoiyWYziaCS6PqUWdmnbMUYcF7Xiya/5+H0J6EEsU9/h6pFnSGcnmjb9eQ9bIO0g9LBBB/t0e2tVjq5/aoOKZbtU/GyxBV8ZJUHVdJz/uA9TFRnHn+oqxpKTD9RUpmY9S+vveH6xjguuBWadPbgiCdubFFz9aZgcCDzVQBwVBEa0W1hbyqCzdTs7ARk2AQ1+Q3ujwCXiWDIVDDpwyT05CFS3256chPrW6LjbAzgygeqjsXEJJROAa58DbCZejDXVh4rdD0MJNQB6ahTNxLgoWwvgyTuDezJVB58i1AQ8eYuQVXhOag9jN0d1dhC44xI6zB2ETEsZQpoPn9f8iV9lrOdC5FhHpXRFVVNBoExJ7PpdrFYrsU77AvWowVxxIYqF0i7XoAM+nBJIxSFvDDXAKVHZaFe8Eo9gqKt5ZQNVTVCNAzE3Xih/zdRee5t3xdQiBkintIMwQG5kX9vG7moVL2xSMDpPwKUTjDrm+54M4uALMpTargd4ZjbQ0gwEU2TcHT0B2LnZAC1SuqGgZPA4CURg9dDuFjyzz2eUOpK6JTFcWgR4/RqUKNxJZJ0wb0H42cm0C6in0kkG5Dq7VkDEfMZ0IO+YhJn3dgS+5RQBLY2AIAHeBnNP6JBTgBtfA+ToMIG2SSiPHvQfQ83h5xHyV5ibPEYvihgQ5ZOuUQiLoXj0/0C2Rg+td+tCPTBY1UNYVf0Qn8kjl2JiprlDs/OlOZ5Ao2oGZ9TDP6D78bH6HoYKIzBWGN/jUTmv5oWd2btEJ8jx+FxdwdNKDubCx6oh4EXllHPFRcgT8hNaMRjSYRlkgOWERkmxQ9pBSNFw6WHJW+DwXh333cxiOgFZOUZumiBy9TXmUw6U0y4oASoOGmtacrWBZXBnDh4ngfa9tVHBf61pRE2rPDMd9PRvNAeB+tNnVNoYbh6bgKYAAdiAfKfI0w0U+Yk1XgwCC97IQH2GAtbCUPB6O3mP0PpimIgHIdpTVDYJuO7FxE4CjQ34KlC57y+giEJqjYGJduhqCx/uzj0D2UXnpTbVCRhFB/ua2scQ0JrgFPMxJfsbKV+1KVQB0naIBVg8qO7n6o4lQjlGsbE9RntM5Ys71C0YKgznYNNwFIGLxkFDtVaFArEQTXojZ3W0wo6pwkwUCyWQTOhjKKoGiUpk0q3bFkg7CN02YXoCsxagMrs7z2do4sj1+I2chdxCw0loqAUajHLrqI3C153npEjCL57W4c4EQkHjLdYygBkWw4ZpUXXc/HkDdtQbYfdYGARynQjgSayIkW1CnoS7RjoxMUOCyBX+dNzwZQO21XQK42vAFQ9mo3lb9B/i4hHA0T2J7nLszy/5FTDFZLl//fH30FD5fkoXo3LGkD+s8MhQPOpuyLa8lOY6UYOqA7tw2LsKozwk+dx7kQ5Sd9yib+CkRXR0TxfnIEfo/vUOavuwSl2OMWwCJohT2hwEv+5HCEG44G7DhWzQvjWKsaYAACAASURBVMR+bQ9mCaejSEwrPZ6oZyx8nbSDcKItPkCuZyCh6S3U/Fs66SR85zKGuhrzRrBYjHI5n/GCF7U5XYAaCkBRRCiqoQEgy+D6DHQIkpNhteu48S9vojAvDyWO6SmDu8yv/OT1bApp+N8NTVhVFeKLoMhAY2tUgV6siCLZGzRSCeQg0J+XldtwfrEVQ+wiMomCMaK1KDouW1GH4xE6D8MOWDDu/thggaLhQEV87qKoBqLIg9UKBALAtf8Ehp+R2I4hfxVqK96AvzlJsKKcGSHsBEiWfM59wMib7MOtp2nMqZpgu7YZ48XJkCB34BzYp+7hUQR6s6cw/wLxHLhbyZNSMREpN65WP+ES0cSU6IIHI4UxKBdGcrAiUVmLnaIETVojHMzRJksd7bo9bZNU9jYQx6QdhIF4V/vwnv7rQqC+1vwCM3OMdEO85nIG8d0z78Wz62/E1oOjuEORVwgci6jBn3HRbky57jWeYy5xzEKJfQZEoStAy/zK+nbP+pCGh3a14L2jAbgsDLOzZXy11IbhDhFuWUBjSMPquhC2Nyr4eqkNedb45FbkcLxfYcxFZZLTPnFAfjS2HoA7A2iKgjvwZPFbwLEJSmtQgqeVNMCVbXA2NFQBxIuRPRS49nmD3bGlDsjsipWDqjSjqeZzPkFD9TJAN5yiWE0QnWD8vrNW5yAshymhaOS3YbElr0bYt5+ExKsL6AG8o7zGD20qJZ0hzkMZK+dv8fVaHd5TX29TdsxlBVgontMFk5AIGEiYkUPaQRzW9uNwhJx0AYZgijgNVt0Gq2CLi3VIOwGJ72VP90g7CD1t0fR83ALRfjB8zTq+93WGxnbAfUJr2exGBCBcL+90qSgrrMHhIw7YHMD00TtwXv5vYSUGNt/F+OO7N4PeQvnbcURUfMIZx3DanU8bokA6MP5ABjJn3Jzw+v29A2kz0D+2buZkKdWwy6tihEOAVRTQeAx49AKgkVgvo2gKRcMgkHPQGJEqysoD7B6gYp/hIERrFE0gp8GeAdz6lg5XgcKjP4TA55UHB56A37u7bSiJMqlqM0CfU4RLsEOQM6EEq3jFgpFO6Lpgd+7pyC46v7/f7pTXH9JDeFd5nZNRWWDB2dIFnHuAQv5LlZf5n9To787rxLBIf09OBjkBxIDYudFvwTH9KNapq7noEylDEp8FMSWOFMYiT0wMPKQ5VJ3uPesSYUh50+mBCS2QdhASmijdIRULRHUQvDq+fyVLKoJA13a6AW+Eiu/5E17GWcNfhqLb4RHC+WPgqS13Y/nuRTy1kJsPVB1rX7ko6rjmsSdgyapG4WENpZ98Dsu3X0hla+kxALYtBYaeBjw4H/DFwJTkFhtljZl5RlSAOBCqonAgmDWo3aPhin88BntWAKpqiAbRoaQpHRfAmAzSXhBkF5QAaTxoYKITeuuYztezucYib+g1UcmTzK5tIPTz6z6uqFihH+aH+ExxHgpZMScz+lh9lzuadjixRLq4jWQpzINA1QedSazCNqnXa/G+spSnKSJlo0/BJIyXJptSfyQHhBwXaqmUVQ6E+3My9pB2EE6G1QfhNWsrdbz6N2D5UvOYBTITYQkoUhAZrp42bD1unXRPFyv+fu3vsfWQURdO3AgULVCCKvIyGyHnWLH4149AUHVMfO1LWBqbIF37EISCEYPwbnR/y/TGTxUKD8wBjybEahk5BmEStcj/TmUFki2Eq57+FWR7hLcIBkobaBQ1iNEE0dP6edcwhShno2jktyBKrlSWNGDGNOtNkHSJcw68qRr6D5RuIHBgiTAUHynvoBrHIcOCs8QlvKKBnAL6VxKkNrIjciKIH4EaiT7t03ejWj/O0xfUqCIh0PrfWcjFImmxKaKlMO8CzUEvH0EEOL1z+P/TjkPvPIppB6F37JqeNcICpNr44+uAIwfMOweiRLLFgM2qICejCQcr2ulcHfYglkx9H2fn/bGDnZ/Zfjc+2rGIh5ALsmqRk+3DV6e+gvLQO6gbPQFWchgkIGPrZh6eFsafCfErt4ORClS6JW2BoBd47FzA32CQIFFKh2izm6oN54E4LaiapLEVc2J1AIE4YNNEC2BMx4W/fR25p6zo2JVAbXHIkiRLHk8xdGwCbK5RyCu7BkIUsqBEaxmInwc0PwcC7tf3YKu2AQH4OUERAQhJc2G7vhkH9b1cLGuGODvqmzylKrjTwCS8rbzGUxaRLTKCQH8/V1iEIWIUcEnEoHD5Y7gcskatRhMaUC6mnfvefg7TDkJvW7ifz0+6CaJo/mCPtt3aSuAHpMiYxOHwpwsvgcQM+uD1/svxp3eub5v6+gXPYU7GE10upVlc+L9lf8KtZ/8DBS0fx05sR4xkkxZDPueOfn6XTs7y6/YDD54BLvgUFl7KKQYUX/SyVLsL8MV+0U+4CdkRxDXP/hyC1JHzgImONh6DaJOIllyowXbBI+qTW3oNnJkTE15zsHUguWUSRjqqHcYK7cO27VO1wURhKlzMjU3qOsySTo+qsLhSWc4jBsRvUK/XwQ4Hr4xoQj0yWQ5q9Y6OWjbycJZs8E6QI0ARjEitDfr7z5XPME2YxR0Sik6sUVZxIaewhsNgu0cncr9pB+FEWrsfX0tTdQgpOArvvaDjvRcZvI0GCVJt5xe5KDaRZR0XzP0MizN+zj8NwoFV1ZdAgh8jPOtRYGkHpXUerjMBLBbirXNnmxvSRT+EUDrhxNyZMNIyidLQE7Ow1K5yeA3wxFVGtIBknQlMGN6a3Q60dHIIKbpAnBSptIyiZnz14T9CdnQsgSGFRpVIjuJEEEQ5B2rIyHMwJiGn5Ao4Miamc9lRbgThEA5pBzBCGI1/K8/zUH64ZSEHozGOH85UouiRMto+M8qedV4N4YWXf07/EDKBsAe8dKUTOJRUHCcK05DNcpAr5GOd8gX26Nu5lLSTuXiKIwQFo9kpnAOBpxb0IFaoH2G8OAUFQmGbYxGJS0hUUZHK8zdYx6QdhMF6503um9IDVGZIb4hWe3KRBPqi/uEeYM3yVtVGGfBQpkA3DhOS+lWiVKXNmHgQtwz/pskVptjN5oIw8jSw7FKwUadByCw26unSzbQFNr0IvHh310BNNEeA+Cy47HQnYiazFxs+fxcW/u9fu3QnmmQSbYrX2h0EhszC8+DJPT3tHMQxGH1vCRS4T9+FTdratp504FNE4HTxLB4VcAodaZpp3Cr1ExzSzalrlrJhmC3N5/OT7LMKhfMiELeKCAl1ejX/M4flteEaFE3BUf0QPCyTRzPIKfHqTchMUVHS7PM3WPulHYTBeudN7jvo17H0SWDyXKB8rPGGaAZFTD8WlUfAyxqjtZJyw0GIxokgSTq+v/gnKBW/NLnK5LsR/gA2F7Q1xI0ACKdeCGHSOWDOLMDmBks7C3GNGvIDz10H7PysazeS7pZIfyEi/ZxTANRQSWSKbdx5qzD79le6OgicJjk+zTIBEdVQLZxZM5BbclmKKxg8w6gyIaAFYBfsWKl+jMP6gbbNy5BxjngRKNKQLeZ0McomZT226SRPHaX2tVPvcjYSM6W5PDJwQNuDXKGAl1HWqrVwCHboTIOTuTuMOqoe5qWSw4QR/HeIHAYqoSTJ6XXq5yhjw1EgFPGKB4pe0CrM0DOfzLtLDLMC1WX3wZZ2EPrgTelLS+I1zIcAT6YBQJN5dUDih5nGPfIj4PNl0ftm5wJ1tUBWNlBfZ4SpI9s5Y17BpWO7vjH2iG2sTgjlU6D7m6Ef2MB5mIVZl0Nb/TxgdUAon8b/n+UONbXXHllTP5ukuQr43YyuVM3hbYRLHOn/HU4DsBgtWmR22/Nu/RDjv7YRSoC8jPZqBFHOgqo0xVd0ZBIkOROFI++AKMYmdzK7lsHQb5u6CcOEkQgggPeU11vTBLRzBg8yeAlkttDVQfCrPqzRVuEIWoVRYhjLARdOF89EhpDJQY0fKG9y3MJwYTTWq5+jgBUjjxWgTBzWYQbScaDoRljoiZwZko3eqq3n+AWKcmQgC4ukcw1dB70KxUL3KZrVIDAYsaxpB2EwfNtPwh7JQfjzvcDnH7E2kqPwMiSiQWatGgkCQG+XVZ0E+S6Z+iIWl/2j51fOGFheOfSqg2A5JYCmALnDoB/cAPgjXnmtLghTl0Ca9432xHrPr6bfzEjwic5+4ed/A974SfsWyBEIKYZJqTSVIggUTSDSpO6AEz05Lbj8iV8BLMAxBHontkRKM9C/mkIIyK6ljILkRl7p1bC5Oh42/cb4J2GhpItAio4e5sGHyjuoQUctdsIOhFMC5eJwvsIw0yFpLazWPom5agYB54gXwCMY6p906BMZE5U/SpAwTZiNAqEYIS3InYbjqIBDd7aJRRGvAmEWqBGYkpQfG/V6fKi+xbkYyEE4R76Q4xVI8InmJO2HTJaF0UIrhiLiYY72bFdsBDJKAEdr8ZSvDrBlDr6fgrSDcBK+fIPhkvRj8d5zwIq3GQ60YgqJApn4CWw2dNBjyMgCiJqX5J7py0p56qtO/RtOdRv12L3e7G7A17Eci78rFQyHMHkJ9MZKiOMWGLV8dNoRIs/uGfTRBX8j8JezgRoiQ8o1okvBAEAOYE2rw+fOApriCG2ZubezbvoSk654h0cBgsSEGAOQSFgDIk2KdCCIIyGn9Eo43AY/RrqZtwAdsMReWKNXYZW2PCKKQIyKLhSzEjTo9ThNOh1U3uhkTs5yWK1V4iP17TZ65s5XJPDhIvFcZLcKPx3TjmK5+l4rw6KCccIUjBHGdfh+0fzh6gZNJ9eEwI8qH0MRTYpCEKFTjVYNP1p4JCJTyMI+dTePaFBf/p2GwNc9xD8S7spS5Bi+TZdGTi4EA1pJtA7BFqD5GODMJ82OwRNNSDsI5r8v6Z4pWODFP+t44ykjzUBpCjM0y/QmevfC+1Aqrk7hij04JKcMqOkcKiUQBiDM+hqkedcYvx6DuAWagQdnG/wG0SoUXJlAcxLU2tFMabGE8I1Xf8h/sY0IQvxSCFHKhKoYF3VlzUJOySWD+A51b+stmhc2Zsen6kc4pkeIm7ROe45wIWRmRaV+DGVCOQcT0mHt01s4qdLb6qsgQiTiLWiGwXjphBuLpa+2ESS9G3oD9ajBTGEedms7UIsqXCBdzqMH4ebTfVivfoFJbBrHRGzW13EHhByEc6WLQBURu7XtWKd9Didc/NpTxVncUYmKh1hXhs2XLsT4hcCFDwJWj+H7J2rVu4DGo0DuaMBTZAB0B/JPQNpBSPREpD9PyQIEvPnX74F1nzDUVAFDR6ItkpBowoJiHT+YcS3sSELVKdGkvfA5GzIO0iX3gtlisPBFi132wjpO9pTb3wReubtrGoGUNIkcqaVrcCapJUuSguv+/SNIllwowY6h7mgTCaIbmurlqozFo78LSe4IdEvq4lE6D8YyOkoDfKK8jyq0I01J3fF86VJITI5pUnrzpxB/CCFQ6oHe8kkIilIIYfCgV/fiU+V9/tbfordgp74F84QzkScUtPUhrMEhbR/nUiDyJsoQEKkTMUAKhDsQsqBqKr5UVyJLyME2bSMneorV9OWjsOX6Ofxjen0ZMgmYfhUw5crExUzeamD/p8CYc9sjCSZgWd197E7K+LSDcFLMPvAv6vMCd10EkNgSpQwIhOiNQ5KT4fJiztAPMG34JmRbj8EVSkEr+CSYlZWMh3T+d8DceSfh6n3nkp89Anz6iCGSRY1rKQFojqLomMqqr/nXP2DNNC/nTFEEZ+ZUZBUtTuVyMceoapATQ8mE2B1kzas1Y6W6DLUwOCWo5PFc6WLTVQJh3YbODpYBUlyKkcIp3Cn4UlkJNzyYIs2IS8McxjzQWmgOURARvgZJWB/Q96JSO9YFP8H7vz4RW+88tcMdJId2xjXAwrsBO6mOtrYwrQpFCmr2Au/9FHBkAef+0kg3pCMIg+yLkN5u9y0QCur44XXA8UOMOwmRiozRZr//q99BHrZ2/8InYwbJCmH8IsCdA+m0Kwb2L0YM+waagAdnAc3djBbEun0XP/gUskdtSuru5pffDIt9CESpPVSd1AThA0LXBz3eJEyERGF90mWoQzXHISyWLuy2uiJFJ95SXsEccSGyWDYa9UbsVrfhVGlWFyGnWJLP7c4CuaWGl0rYBPp7wkl8pi5rS3HQZ8qT07D93ugEabe9DuSNBZeNV1qDEIRBEGXghf8ARs4H5rSSrzZWAM5c47OB2NIRhIF4V/vAnoii+Td3AtvXJy6JHJJbgx/PuwGsVaK3Dyw/5SVI1zwAoWh0yuP788AXbwFq9gFqoFWe24BroPKgQcfcnTb/9mUYdd5bpqeQrPnIL78JkpzR7cM98o13MKYXyOhhB4EwBqTZQNwDhBFwMCegM7iE9jRbpI0oxUD4gLCAU7QbSP2pCkFmFh6VIEAhASQtzNolghDPQajX6uEW3KjX6jiJUwcMg9aCt9RXocBgZvM9NBt7fh/9e+opBGZeCUy/Adi3HFj2ADgTLD3L878JTLocsBsFGCBMwspHgPN/OzDfC9IOgumfnHTHZCxAX+Q9m4EX/gzs2BDbSWBMw1ULl+IM95+Tmb7P9iXCJenMW/vs+npzYbvfB564oesV8kqAqq74tqSWMvWyNTj1xudNjxFEB/KGXg+bc6jpMemO5i1Aofz92h6s0VbyN/ZMZGGicCoKhWI+yS51G8cZkK6DGd4UGhNZqWBmJZRWIN4DapHX2KFs5RwOFqFjGuhT5UPOwkit8u4FqHwl9rNB5bnjzwIu+pMhRnb4C6BgPOAu6rgyghkt+xUw8izwiohwWaSZ9feHPmkHoT/cpX68xoYaHd+/mvESxmitILMa9y64DZIenw2v35ggbxjkax8EMwOJ7jebMr/QPywCKnd17E8aHJRiokZlrpn5QEsD4PeZJ08iENhFv38S2aM2m15MRsFiZOYvNN0/VsfOUYPBGkWItE9YWGmnthW7tG1tmg1EjUxsiFS1QC0XBZwWOY/lo4QNRQhBLtMczWkIAxo7H/jh60amOejvqFySmldv5tTPNsEgwYrmaFAaY5O6Frv0bbzPsW8vQPUbsR2EaZcDX/2duUdHCQJqCNj6KjDuQgO4SP8OBOBi2kEw9wyke3XDAp++peOv90ePIuRl1OHeBbfCAm83rtCHhmaXQr7hj4PWQXjtTmBNJ/oKyuUSUFUWAZlEnFpxCrIMhKJoccS6m3lDmnHBoz8z/cObWbgE7pw5EASpDz0gA3MpB9X9vLTQi0bs0LbAi/Y3glxWwPkU5kqL4IgoXUzGEjvVbXAw4l4Y0pauqFCP8IjFXm03RoixeS7IsfhQeZtXNYRLLQ/cvAhNHxoy0/TLdMZtQMk04LX/AZoajMP9tjeAoknmV3lgJVA6E/DXA8e3AcPm9f8yyJPmIBDYJRweMn8L0j37owWUkI5f3QHs2hzNSdBx/YLno8o398e9srGnQz7/ewPj9SGFG3DoC+CxKLQDBPonquWwoGV4arsD8CWQAR93/kaUzVyLjJImZJQGoYYSlzryt9eyb8CZcYKUOlOw1UAdQm/rjWhASA9yNkZqVFEwhJXxKoN61PLSR3IoCEA4XpyMPdoONKOJkxgR+JEOdYfg5GyNxKnQqDdw/MA4cTLHNESeHXSWiCw2iQFds0I7DDucPO2wXd2MZVeOQtOqPB7RmnsTMP87BiiRns+XvwVseB2QbcB/rwKcrYzSVN5IgMRYrf4gcOhLYMLFQB3pVVHVwy5gxELO5s7n7m9RhZPmIJCR007CQP2J6LqvvVt03P+fLKaa32+/dhc8gZ18oOE6JhZ76XPWkyyQrvoNhIKRfW5pJ2pB/74L+PJFc1ejH8vODkPnkcSBcMUTD8CWWd32kSAagDhNjVM3S8RceQuRVRi/zFHTQpx8yWye3NzO0r06WyAMLiTngRwBYmek1ANRORP3AYlA6UyHqIsc+Ej3o0X3Yp+2mzsR+awQw4VRccGOZq1O2IWPHlZQv1eGv1HH2d8VkD+2fXT1buBvFwPeemDKJcDp/2mQKGUONaoVmioAV2H0w54YGKnskcTMjm0yIghEqhR2Msyusa/0O6kOQl8xQnodJ8YC992iY++22IDF/7vkHliCVQjqDuRLHRPZzcjHMXEW8tX18MAAGvW1xtkV51/X15Z1Qtez/l/Ay98zf8mMbKAhAR/WdS//GpLNqL1va0yEKHo4GZISrIp6QYutFIUjbuN9YrUwniCNKzB/z3qyJ+EFtmobcUQ7iDOks+Fkrc6fruFt5TXOlLhQOqdHHIMuTkucKPbuD4DnbgcUH0D+/tf/DhDWIGeEuSgAOQavfBOYcIlRMkm6Dp1hSeQch6MKfTWykHYQevJpT88V1wIfv6bjH7+J7SBIIhGgM9w5+0cYk7OBz0VxhNW1l+KZ1VfDF7Tiv0//McZmr+lzlmbDZ0L66g/ASIhgEDcCaxH1cr1JaWeShVbotsdp173yK0jWrl6EbC+BEqiGrsVmzHNknIq8sit69I6knYkeNSdPJ5BqpAypVanRgQatHgIT4WKuXnEOaAdBhGBB9O8rHfCkNRLyGZGAtU8BFzxgECiR02BxmrMByba8+R1gwf8C7oL2MfQ9IfI4SmP05XbSHYR0mqEvPx49uzZN1fGTmxgOtoo3xZp98tCNyHT7ILEQGvwZ+HIX5ZENx+Kbpz+Aqdnv9+zCujtbTgnkqx8AI17hdMPLdwDrXzVnCAdhEHxA7pAgSk7bgcbjGdjzSVnb4Iz8Zlz2+P1RVBqJZIESuyqYYIGukT6DQbZAEtD037qmwmIrQsHwm80tJt2rz1ggqAc4D0K85kMQtaAKBhFNaMEw5PPKhjA+geSeVeiQER2f8AX2YDgKkIMYVOkRF4/ED/CqhaARESDQbbQWTp1x1Voq0GIdnQElYIzq69UOJ91B6DNPZHohJ8QCe7fquO8/EpMn0WKKy4CjnbSSpo7ahZvH3wNZ7ztVD+KlP4U4fPoJsV9/uMhT3wB2LktupflD/bjgkXsRasnB8t9eDE+hHxUbi2B16Djr/ochylTuEMG2RKA0XQPhEZhogaZ4udojRZyUAIUvDAyLzTUaBcNuMrUYnifnDke66sGUwU5yp004iAOowkKMRw2asBmHcApK+IFPTgJFCLLgaiuHjFxuCAqexic4HeMwHPlJAebpMTm+FSgYFz/dULsPyI6jME4RBGp9uSI67SCc5Id8sF2efoQf/QnDyg8S7zwcrSf0e2QbV74f181/CpmNX4DFkP5NPHsP9cgpheXGgUHy1BMWqd0LPLSAuPGTm61wRAuWPPzTjoN0Cw4uPw/7V5agaOI2jFoS8dAwEYxZIIh2qKHYIAabcyQKht9iajEhfzWaalYie8gFpvqnO51cC1D0+Vms4FGEIDrmqegVxA0HlmAaCpHRZaFrsQ8fYwvKkItLMCspB6E3dp1MhQOlJ04UtfMJcRDoRlJLlzX2xqPV/+b0Nuq45xsM9Z1wZ513QmVH1CiP17XpyM1oxFmnvIuFBf88KVUPwrhFEOdeBZbZiV6t/92SHlkxIbcfnAs0mqtC5Ndc+J2XIdmb4MzxI2dUNIEuAct/eSOGn7ENJbNXtK2TMRk6KQVyhcf2CofOG7E6R6Bw+H902Z9KFMARKoSaGkDIfwzH9v0FRaPugsU6uMW3euSB6MVJNOj4J5ahPgZ/CiUa5mMcpiL6K/xbWIftOAInrLgBi2KmIXpxC/1i6hPiIESzBOWPjqMeuciAC9Z0yWO/eFx6ZpEkBX3/bcCerfFTDfEdhPa1DCs+hhxPA64Z/X9wsBMnES3MuQrS3Kt7xigDYJblvwXefzC5jVz74s8gO+KXKxoz0rPSHpaQrUUIBSoMPj3JDU2JLhtpNoLQVLMatUdfI3cUeWXXwpExPrmNpHv3mgX8CKESDXDAilwY0t1rsBfL44i7FSATszEa5ciL+mL6d3yIBrTACRtuxEJSi0i/wEa5g73qIKjQuOETNQoPEZCEIg0EMkkDFxNZrH9/TmmG5f8GnvhdbF4E2iGRmFD0gFj4zLTvLvwRRnrWmunaI33EuVdDnHNVj8zV3yehEOkf5wCVSWouXP/aPRDlBGUMYeNw3AEgWfOgBCohSm7uMuhqi+E66F1pGWVbEYpH/Vdc8+qagqO7H+RzUssp+TpcWVP7+y3p9+unc6AaTViB7diHSthhwXVYADpX6ICnP6M1Ai1ej4VQoSIT0csNHsE7IMfDAglFyMJCTEBWjL793pDd2ECvOgjdWFd66AC3gK7p+GQp8PdfxY4iuDxAc6N5Q9y16Fc4xb3c/IBu9hSmXwRpobn8djcv1eeHNx0HfpMCTvPGpd8zxS7HBDt0PWgwz0REEkQ5B2qoBqIlD2oUPoRYKYawQXVdReX+f8LfTCRdRoTCk3sGsorO6/M2H+gLpAjz21jPMQbU6GWTogjkAHjh74I7CNuDDv1rMB8ZiF5VpEAFOQhKhIMxCkU4H9MGukmT3l/aQUjaZOkBPWUBKnvcsBJ46VHg8N6ujoLTDXhbefvNXPOrcz7CkrzfmunaI31Y+amQL/9Zj8zV3yfZ8S7wtLligbatiiJw/euJWZXIOWAclChCVeiBaH9zZMwKXQ+0phk6PiyEU8grvx52V1dmSyVYj5bGLWis+rjDnK6cebA7h6dTDCf5gaToAFUZUHVCKo0i0oRBmIiyLqmDD/9/e+cBHVd1reHvTpE06r0LucXBBTfAIWBMM8WhhhZwgBBICAkh7fFWeCxqCikkLFiB9+IE3gJC4JEAKZAQeu8GVxxXXGRbLpLVuzT3rX1HsmVppLkzmtG0fbK8WI5P2ec/d+b+s8/e/2YNK9l6yLSS/XAGc0JZKqHHRIQgSPqG5ImOlCOa0Ijq5oJGoK/X5B+PYnkU9tUeJAoSgyB/ukfWwTlkrfysVhbMWk5maivHZD1KGo1B2xLMAMfMRbgWfz+YIQnbd+XT8NR3g9/eRUvvCS1DZAAAGoxJREFUI6uyZkQvguGQXHjjgBiSw+lzGYvugQQpWrLLhoHXIg6DmuEkr/QLZBcuGGZUc93bNO5+zho/tKVlzaS4+jKVXg7+KMMyoo0u6+pAMgwkhbEHm/eLI6w+g8NYyDTL4yBXCN308SAvD/M+zKCKU5kV83EI4kCT67xdy2HHMpj/9cimSUaEIFjpxF4QXWrX6FoXYXmodJLEQECIwqO/NnjtWd+HIK8QK9MhkF7/0N27Xb3cfsq3KErbGVFgnMd/BecxF0d0jXiZfMUTvbxxN0y97mPeu2U+Xv/Xw8O2k1XcwflL78SVKkJHhzanO3/EFEZXWjm9nbusAU53Ln09B8lgSno1BZUX+c1E8Hq72bX+l/1eg2ErUjble6R4iuMF9oSys4E2HuMNTmYWL7EKuQoIRxOFxks4lkKyeYcNvI+v5svgloqbb3JaTBMEeaeKwJKIK8m7Vf7YVXQMFceIEIQBYyRfUwpXxLIQRKjA6bjIIfDXB0z++pDBYZNg5zb7QYqDLSrMaeKGE24l3wgg2ziGbTgXfRPn3LPGMEPiDN3Zvoytba9bG+prysLsHa5e17KqkvpXZ9Jdl0HLlgxcaV7y5u6h6ryVZE/fTIoji9ymJgxvL1JEyetthxF0LgYThAEUXSkFFFYtIcVTMaIHoKerntqNd2P6mVcUGSs+eyNOl00d3cQ5vpjYyVp28DwrrBiDcJGDgY1JPEI+mWynzm9wo8QtfIvTY5og9HbCQxf6dnTZ45Ca4Xu/RrJFlCCI4cJyVJgskkeYmHO/8YzJ478x8GTAfv+1eAJu/Gufu5f5pS8E7BdqB/d1j2GkDxdhCXW+eB7X2rOHlY2P2t5CqiPXiiXoNbvxmt04jVR6zQ7yOlPIaBTPz+hKS67Ukn7FRN+SEm9QMukaUtMPyjT7M0ZiD3YJQfD2a90O6iSeiIqp/6lKirZPMXwdW+m0AhJrGFnTInyrDZ8pGw9XcIJVDyJWm3gQaj6Agingyfcl/sY1QbCuGbzgcER+I7F6qGpXaAjs2GRy85UGxeVQv8eeF0GUF60gd/kV2we3LL6FqpTIpT26v/0YhkcJwsAJb2t7gx3tH9o68HRnEe19w5mfwzQorWvE0Tf8BX5gYtHot+IHfIftSim2yIHL7cuRH615+zrZueEuvL3DtRdyS88kp2hhoCn038OMgNRM+BvL2EoQClthtkG8FhfyeYrJtpWaH+blbU8npaYzRMPLGB/PfMQ9CLLzYGQkbSOlHRMaAclw+N65Bs2NkFvgi0UYqbndPkIgV1kDBKGgGG5ZcBWp3TbLCgaJplF1BK6LfoIxoOYU5PhE7O41+/iwfqnlCQjURiII4jjI7k0je3+tX12DgXmlIFNfTwMpnmqKqi/D5c4OtKT175LWuFNiEAbFLMj/bzg9VE27xcqUsNMCVXQ0TS9GpH/e2TE0hvtIAGItDbzOWuppDuAzivxGROlXlBePZWpYPQlS3MmVEnn7I7GCEoRIoKpzhgWB26+CrRsgOw+aG0aeUj588iEc2m4982YqXcvDYsshkxgOXJf+AkfF9ODnHlzmLfjRMT9iXdMz1HcPDwIbarjHUUCHd2TW5+l1UdjQaIkgDW2WJoJ1ReAlp2gRuaWn2salp6uO2o33DMtg8GQfYWUv2GlCMlobV5CVp3nzdvASWWTRKZQMBRHF20gt26hjF/VSc9POFOPaZw4TrBRJOyJ/dgxr3Qufvg5HXOj7AdPdBmn2+Kyd6SPaZ1wIQkR3oJMnLAKP3WPywpMGObnQNErGongOBiqjDQZjyZzfcWK1yOeGtxkV03Bd8gsMjb4dBmxjdw1rm57EHEHlbmBAmiOPTu8orA+oaAKjY7jb2XCkHUh7FE9CxWdFbClwhVDJYNi3/f/obPlkmN0FlV8iM2/eiA+KeAy2tr1BdcYCHDa9DOF96uJ3Nqmq+Ak7eIt1YQ8+jAQqUp/hak4JG0EQG6XC6byLYfrZsPk1qJoPKXFQHV4JQiSeMJ0zLAi89CQ8eo9vqqwcaGmCzCxoHZLyXlgCdX5uEi6dtZSTJv49LLYMnsSYfQbu064P+7yJMuHapr/S0L151O2kOnLo8vqvnzAw0Ol1UNibjbths1WGWZrLXUCvVb3x4C/P8qk34k7NCwhfa+Mq6mv+6Kefg6rpt+Nwak52QBCD6CB6BiKVLIWRGvrVEIMYHtWuX+UkMvHgslEqwI6hPe3w2Jdh8Z1QPA3a6iGjYOSRseJoVIJg53S1T1QQ+Oej8Kf+SspCELo6wSVBxobvv5LhILEJGZmw30/wc3ZmO0WZe+nxerhw2v9weK69ALrRNuuYfYZVf8HIHOXTHRW0YmfRlp5aVjU+5tcgw3I2OyV/IWCmgvRLc+Rg9rRg9HRgmF7ymyX18dD7pOIJV+PJmhoQgMY9L9G098Vh/bKLF5FXYv+aIuBC2sG6OvgL79NCZ9yRAzk+EU6aQimTKAnbaXa1wPrnYca5w8s1x2qcnhKEsB2/ThRuBO67CZb1l1aQwk2lFbDdT0Vg8S7n5Pk8DCMVdjpm5nqumvyD4E3MyMd51HkgusAZ+ThKpmDklQc/TxKNaOutY0XDw3537MDVTw5GB8SBG4fhOiTg0TChvK4JY0iGQ1H1laRnTwuIcHvzWvZtG25X6eTrAqZHBpxcOxyCgNQ5WMoLI9ZLiAe4TmcO06mMB1MjZqMShIhBqxOPFYE//zf8Y9AP0erJsG0Uz3VRGezf63M+D41JyMzs4+YF3yDN1Ua600YFKHcaxmGzcS68Ekfh6Ln1Y91noo1v7d3HyoZHRiAIKXjxE1E6pHeKkUW3OeQuyYSy+macohgzqFUcfhMud+B00672Heze/JshKxlUTrsVpysOLoTj6EGppZEneCsGQxDtg1hNEedwlCXclKxNCUKynnwc7PuppfDMH3yGllT49BB6A1QGlh/67hRfaq1cSQxuLpeXBXPWsaTiP0fffW4p7iW/hn4RJDsBcHEA57iZ2NXXzLL9v/e7npNU+hhF4wAYLcOhtMODq2nbgbmlnHPp5G/jsKHG1t1Za2UwDG5ZBSeSV3aGrSDHcQMwARZ6hmVsYnfc70QqPEqlx2RtShCS9eTjYN8bVprceZ0vOr24DPbW2jc6Nc0XpyCp6INLRl980ussyv7lyBPlluG+5OcYWYX2F9OehyAgEf/LGx6mo294GqPLSMNBCt2mz4sjMQkDKory90Dpj2XtqTibd+DJmkZG3jw8mZ/B4UyzdQKiTVC/48+0Na7A6c7BkzmVvPKzcDjiNEnd1q7Hv5MEJ65mO6+yZvwXD/OKHlI4l6MpI3AQbJiXjonplCDExDGoEf4QWP6Wyb03+ghCSTns8dXmsd0kNkGUGPcMqtl0yvFbODXv1+QbW4bPI/oGl9+Lo2SS7TW0o38E1jQ+SVPPwV/6A71choc+UzwIBiZ9uI10esx2UoxM+sxuKz3SF8A4vDlJo6ilm/z06eSVnh4S9EJeujt24EotxOn0hDSHDhodgb000UG3FaQYeyoHwZ+eKCxWkZxByUoQgn9e4nKEfDFKi6a73Os1cTgC56sPALy7xuTGS0MnCAUlvmuJwa1qEhw34QVOzrp3+Dk6nLivWoqRl7wuxXA93DvbP2Jr22vDpnMZ6fSanZaOvBRnCpTqOJhYiEJjQZeHIqOCgopzw2WqzhNmBHaynzVsR4ovJUK7nsVJG4egBCERnuAhe+juMhEFYKfT/ss4FmFY877Jr/7Dt4fSStgd5PdNfhF0dUBbqy8JQVIlmxu9XLf4EY5w/dnvll2X/hJH5YxYhCOubGrrqWNF4/CMAR9B6MBpuPCakgxnr6SvZD+4HemYfV1Upx9LcebIokZxBVQCGttCBw/wckLs7HAqOJVZShAS4jR1EwmFwIevmNx/q4HUWpDWI/V5gmxSKCw7F7q7Id3VzDUL7qPa9a6VU++vOU/+Bs4jzwlyFe0+FIE+bzcf7X+QHqsuw0FHs1wx2KnVMBqic/O+SrorX0GPUQRETvl+/hWj1gVn1iyqOZmZMV0GOrgdBddbPQjB4aW9xxGB5x+Hx+/3aRw0ja7KG9Aqp6OPm876GVXGu6P0NXBdcBuOSUcHnE87BEagpWcP65ufxYmTdqvugmEFJPaZQ9JLRphKhJKGehgynKXMzlsS1auywDtP7h6igfB7XqLTRjprrCN1PNM5iuSNSYoaQZBQJKmeJf/Tpgj4Q2BAKCklxecBGEtbsuBPnFDw8KhPmzH9RFyLf6A1FsYC9JCxNW3vUdP+rhV8aODqf+EHDl1zInoJfXicBbT3+eoxZLkqmZ5zHi6HSiKH8YgiMtWzfMxGgowqjogloU8qMstSkyGd5H3eokYQTEwlB6E/u0kxctcWk5suN0jPgPa20LdcktfIfx1/PemGaPiP0NIycV/7CIY7eb8MQkd45JHtvfUsb3goqKldpFtiSpLNIFLLnd4miyjMybtcCyUFhWT0Oj/BO+xilM9b9EyzvfKpzGYmVbb7J2LHqBGERART9xReBN590WTpHQa5+dA4hu+auTP3QF8XF0+8kwJ3zTAjjUlHYZRMwbXg8vBuQGdjNE2E0eARJUVx93R7RU3R4PCssylI+4wiGgcI9NLHb3guDiwd2USpwSD6B8nelCAk+xMQw/uv2WRyy5UGmdmHih0Fa7KIJomqYklhK6cf+SYL0u47ZAoJTCQ9G+e0E4OdWvvbQKC+axPrmkMvu12SNpspWYtsrKRdYgEB8Q4LQRDBpHhtl3Bc0oojDT4zJQjx+gQngd0dbXDDhVhZDKF6EBwio26Ct/+7yjBMJpTs5mtH30WRYz3kleM6+4cYRRM19iBCz1Sf2cMHdfdbMQXBtuqMEyjzzMZp9KeyBDuB9h93BIQgPMxrNBD6vWA5+UgGQRaivGmwl2be5N+IdyLS7QSmM2+UwMRkuh5XghDpp03nDxkBEVb66bWihGjQ3nLwJR/MhKKmKB6ETsm2G9Tycjq4/vM/pmpSN64v/RxDhCO0RQQBkTiWlMcur40iWQcsMCj3zGNCxkIM0cvWFjcI7KfVIgh2mxRDktLKImcsIesVFFBA5iExavJSluyI3TTwPCusMtIDTQLd5d/H2oSISJnnUzhC4+P6wVSCMNanSsdHDAG5v77rO7B2uUFZFdQODx8IuLboIEyZDhv8yMKfOf8tzv9yHc4jzws4j3YIHYG23n2sGKG6o79ZpdRzdcYCytNVDCl01KMzUl7U77CeD9gU0AB5scsv9WOYQgr2PEQy/4O8gogxSXPgYCLFbB5jYagUXJzLfCoskqKZdQfIlzmgwRvwOLWDIjB2BAbLLfd0m7hTRv8wPvBjeOt5yMj0KSIG21xuSE31P/a0xXVcemMOhtPel1Owa2t/HwI+D8L/BpRVznKVk+UutzwHKY5M1TqIswdIdDFfZCXr2eU3/iCTNNJIoZ4W3Dg4gRnWL/ZgXshCEN5mHR+ymQxSOZEZvMU6mmgfE1pf4jjKk7Qg02jAqQdhTI+VDo4kAsJdf3Q1bNlg4EmHjhC/A86+TNIkTVa/b7C3PzU7JRW++zOTGfP110Ikz9BHEEyae3byaevL9JpdFKZ+FrfDQ2HKVJ9j2JCUZwdS6VE1DiJ9GpGbX7RtXuUTVnGwSFcR2Va55KOYbMUSSJPgRSEF8vdgyMGA5eKh6KGPBRzOW/ybT9lLY4jxDqJ1cBZHMYGikGwJFk25fskl4wAWwY4f7/5KEMYbcV3PNgLibbj1K7Bji2GVbu71X+TP1nzHLzb54tdh23pI80BGNhw2VcmBLfDC1Mlr9lr1F1xaXjlMiMbeNEISPuJTGmknh3SOZKKlpBnOJtUic/CwiT1k4eFlVodEECT24fNM5UgmjQs5EAykgJUbp0Wa4qEpQYiHU0pSGzvb4YaLoLUJMrKgTVLix9C+cyfMWziGCXSoIqAIRB0BuWb4iC1WYfA8MthBPSvYGrRdJzGTOUwIetxYBgiZkQDL8+JEY0EJwlhOW8dGFAHJXBCC0N4KBUVQv29sy1VNNvn+XZBfrJ6DsSGpoxWB6CEgBKGVTksCWa4pVrPd8iIE0+TKQ64oQrniCGadoX23UWflXReQhcRkxHpTghDrJ5TE9m1eY/Kz6w16e6C4nAPxA2OB5Kb7TKbOUYIwFgx1rCIQSwg8wdvswn41NwmUvIqTSLWZORHOvUpwZRudzOQwCskK59QRmUsJQkRg1UnDgcDKd0zu+aGBaTLmGASxp3KSyU8eUXIQjrPRORSBWEHgKd5ju/XL/GBLJ4UOug+oI0isQhpuMkizMh/kamK8m5TB/h0vWRkcklIpWR+i6zCaKNN42zh0PSUI0T4BXX9EBJobTG5c4hNJGi1d0Q6E2blw9U0ms49VgmAHL+2jCMQLAkIEJPhPshl2UMckSplEMe+ywSo5vYjZTKHECg6UNt7XCgM4PsfHrOuvcOnEYZGVy1mIaDDEalOCEKsno3ZZ6XHPPARPP+ir6Njnha4hioj+YBJRxJPOMSkog5w8g9LDoGpKYM0FhVwRUATiFwGJTain9YAK4xb2Uky29SKOVhObNrOHtdRY/5VWSQEV5Fupn7FMDiwypUJJ0Xp0dF07COz61OSmK4ygsxhOPhcuv8FUsR07IGsfRSABEJA6DZ30HBL810GXJc4ULa+BXCN8wEZLWVL0HyQ48VIWHPBmxDrsShBi/YSS3L43n4UHf07QQklfWAJnXWGSnqlXCkn+COn2kwiBHnpxD3LZ19ESlWBAEXISESYhJnLN8XtetsIS462EtBKEJPrwxONWa7ea3HS5gRRdkrLPzY0j7+LMy0yqJsP7LxrMW2iy4EzUgxCPh642KwIhILCHJp5jOdOptF7K8ncJSBQ1x/Fqos3wN5ZRRq7lyRCCINLQpzDLqhkxoCY5XvaMdR0lCGNFUMdHHIHf3g5Z2SZrPzLYeVDFddi6+UXwqydNiULC4VDPQcQPRhdQBGIIASkHvYzNByyaw0ROZPq4XS/U0sDHbGEDu6w6Eecx37Ilm3QrgyIemxKEeDy1JLP5d3eYnHoxPPBTg50BBNOOOcWkoxWu/RF4MpQkJNmjottNUgTkfv9p3mMH+62KD4dTySKOQOSUI93EayDr/p0PrZLUcpWwmLl4SIn00hGfXwlCxCHWBcaKwG9vMznlArjzOsO6ZmhpGnnG0iqT7/0CiisMHJH/bhjr1nS8IqAIhAGBLnp4kJet+INjmMoMKq1S0JFuItD0Op9Y1xnZeFjIdCZTMm5ei0jvL24JQhtdVorIQG5rpIHS+aOHQP0ek+4OuPkrBrkFUL93ZFtOPNvkyh+q5yB6p6UrKwLjj4BkC4hYkhSIirQIkugufMoeNlDLdvZZcQWivTCPiZQlWMnouCUIkl8q7hwlCOP/YRzvFRvrTTathlf/YlCzGZxOaKj3b8XM+SY33K0EYbzPSNdTBBIZAXnftNNtlbL+sD9lUb5lPsdUjmbyuFxlRAPfuCUI0QBL14wOAr09Ju+9CPt2GfztIaioxm+wYtVEOP/rJnMXKkGIzknpqopAYiKwjp38i+UHpJvlG+Y05jKdisTccP+ulCAk9PEmxuY6201efgpM0+DpByA7Dxr9eBDu+4dJZo6Sg8Q4dd2FIhB9BCS24UVWsZndVu0EaZI2eQZzDyg2Rt/KyFmgBCFy2OrMYUKgZpPJAz8xLGLwyUfgTrUqptLVeegCWqkxTIDHyTQixS3NEJEMbYpABBCQAkub2G39kdiDaVQwk6pxCYCMwHaCnlIJQtCQ6YDxRqCt2STVA68+bfDH+0AkDjwZ0NYy3JITvgBzF5rMPk5fHON9TuO9XkdvIx5X7ngvq+slCQISd9BCB420W6mLydiUICTjqcfhnut3m5ZC4sY1WAGLLc0jb6LsMJOf/gEcTv1lGYdHrSYrAlFHQMjBQItWHYeog6DFmmLhCNQGOwhs32jy9nMGn34Cm9ZCZTXU+BFNyi2E6+4wmTJLPQh2cNU+ioAiMBwBIQjJTAwOkCOt5qgfj3hAoKPd5JWnDJa9Cvv3QXcndPgp/XzOFSbnX6Oeg3g4U7VREVAEYhsBvWKI7fNR6wYhsPp9k2WvGuzYDJv/PRwaT7ov/uCam5Ug6IOjCCgC44OAeBukeqMI9yVaU4KQaCea4PtZ+Y4vFmHrOjAch+ohLL7U5ItXQ0qaEoQEfwx0e4pA2BAYEEGSAkvaDkVACYI+EXGFQE+XyZv/hI9eN9i4Ciu7YaA2w+Gz4Qd3m6SkKkGIq0NVYxWBKCIghZ6kOcehdkMUtxnS0koQQoJNB0ULAcl937wGarfC8jcNurtgw2rwekVICRZfIjEImsEQrfPRdRUBRSBxEFCCkDhnmTQ76es12V0DH75isGsLNDf4SMIZF0NnByy6yKR8gnoRkuaB0I0qAmNEQLwIopSotX30imGMj5IOjwUEurtMmurhxT8Z7N9rsmWdwaILTDasNti/2+TaO6CsWklCLJyV2qAIKALxiYB6EOLz3NTqfgQ2rjJZuwy8fQZ9vb4aDSvfBdML519jMu94yClQTYRgHxhTAJRMcJUxDhY67a8IJAwCShAS5iiTdyNy5dCwTwIXYeU70FQvLzbYtxscDjj2NJOTL/BJNJfp1YOtB0ViPZQc2IJKO8UQAlI7IRHTDaMFsRKEaCGv64YdASEKXR2wpwZqt4vXAArLoHyCr3aDpEXqSy/ssOuEioAikKAIKEFI0IPVbUlmg0nzfr1i0GdBEVAEFIFQEFCCEApqOkYRUAQUAUVAEUhwBJQgJPgB6/YUAUVAEVAEFIFQEFCCEApqOkYRUAQUAUVAEUhwBJQgJPgB6/YUAUVAEVAEFIFQEFCCEApqOkYRUAQUAUVAEUhwBJQgJPgB6/YUAUVAEVAEFIFQEFCCEApqOkYRUAQUAUVAEUhwBJQgJPgB6/YUAUVAEVAEFIFQEFCCEApqOkYRUAQUAUVAEUhwBIzbbrvNjNc9dnR04PF44tX8iNqt2PiH1+uVIkRSo8ERUfzjcfKenh7cbnc8mh5RmxWXkeFtbW0lMzMzovjH6+RdXV2kpqbGq/mW3f8PVSVYBCnunTQAAAAASUVORK5CYII=;" vertex="1" parent="1">
          <mxGeometry x="280" y="220" width="1129.41" height="480" as="geometry" />
        </mxCell>
      </root>
    </mxGraphModel>
  </diagram>
</mxfile>
